<svg width="16" height="16" viewBox="0 0 16 16" fill="none" xmlns="http://www.w3.org/2000/svg">
<path fill-rule="evenodd" clip-rule="evenodd" d="M7.14645 2.14645C6.95118 2.34171 6.95118 2.65829 7.14645 2.85355L8.29289 4H3.5C3.22386 4 3 4.22386 3 4.5C3 4.77614 3.22386 5 3.5 5H8.29289L7.14645 6.14645C6.95118 6.34171 6.95118 6.65829 7.14645 6.85355C7.34171 7.04882 7.65829 7.04882 7.85355 6.85355L9.85355 4.85355C10.0488 4.65829 10.0488 4.34171 9.85355 4.14645L7.85355 2.14645C7.65829 1.95118 7.34171 1.95118 7.14645 2.14645Z" fill="#CED0D6"/>
<path fill-rule="evenodd" clip-rule="evenodd" d="M8.85355 9.14645C8.65829 8.95118 8.34171 8.95118 8.14645 9.14645L6.14645 11.1464C5.95118 11.3417 5.95118 11.6583 6.14645 11.8536L8.14645 13.8536C8.34171 14.0488 8.65829 14.0488 8.85355 13.8536C9.04882 13.6583 9.04882 13.3417 8.85355 13.1464L7.70711 12H12.5C12.7761 12 13 11.7761 13 11.5C13 11.2239 12.7761 11 12.5 11H7.70711L8.85355 9.85355C9.04882 9.65829 9.04882 9.34171 8.85355 9.14645Z" fill="#CED0D6"/>
<path d="M14.5 14.5V1.5" stroke="#548AF7" stroke-linecap="round"/>
<path d="M1.5 14.5V1.5" stroke="#548AF7" stroke-linecap="round"/>
</svg>
