<svg xmlns="http://www.w3.org/2000/svg" width="16" height="16" viewBox="0 0 16 16">
  <g fill="none" fill-rule="evenodd">
    <polygon fill="#9AA7B0" points="12 13.5 10 13.5 10 14.5 12 14.5 12 15.5 14 14.053 12 12.5"/>
    <polygon fill="#40B6E0" fill-opacity=".7" points="9.5 15 9.5 13.988 9.5 13 11 13 11 9 9 9 9 16 11 16 11 15"/>
    <polygon fill="#9AA7B0" points="11 10.947 13 9.5 13 10.5 15 10.5 15 11.5 13 11.5 13 12.5"/>
    <polygon fill="#40B6E0" fill-opacity=".7" points="15.5 10 15.5 11.012 15.5 11.5 15.5 12 14 12 14 16 16 16 16 9 14 9 14 10"/>
    <path fill="#9AA7B0" fill-opacity=".8" d="M8,8 L15,8 L15,4 L7.984,4 L6.696,2.711 C6.305,2.32 5.532,2 4.979,2 L1.051,2 C1.023,2 1,2.022 1,2.051 L1,13 L8,13 L8,8 Z"/>
  </g>
</svg>
