<svg xmlns="http://www.w3.org/2000/svg" xmlns:xlink="http://www.w3.org/1999/xlink" width="16" height="16" viewBox="0 0 16 16">
  <defs>
    <rect id="abstract_class_object_scala-a" width="8" height="14" x="4" y="1"/>
  </defs>
  <g fill="none" fill-rule="evenodd">
    <path fill="#9AA7B0" fill-opacity=".8" d="M3 3C1.764 4.263 1 5.988 1 7.895 1 9.801 1.764 11.526 3 12.789L3 3zM13 3L13 12.789C14.236 11.526 15 9.801 15 7.895 15 5.988 14.236 4.262 13 3"/>
    <mask id="abstract_class_object_scala-b" fill="#fff">
      <use xlink:href="#abstract_class_object_scala-a"/>
    </mask>
    <g mask="url(#abstract_class_object_scala-b)">
      <path fill="#40B6E0" fill-opacity=".6" d="M1,8 C1,4.134 4.134,1 8,1 C11.866,1 15,4.134 15,8 L1,8 Z"/>
      <path fill="#F4AF3D" fill-opacity=".6" d="M1,8 L15,8 C15,11.866 11.866,15 8,15 C4.134,15 1,11.866 1,8 Z"/>
      <path fill="#231F20" fill-opacity=".7" d="M5,4.28253174 C4.53,4.74153174 4.028,4.978 3.1,5 C2.061,5.022 1,4.2794 1,3.0004 C1,1.7124 1.971,1 3.1,1 C3.94833171,1 4.54833171,1.18475342 4.9,1.55426025 L5.5162,0.836730957 C4.8293999,0.270175195 4.28826904,0.0004 3.0982,0.0004 C1.3402,0.0004 0.0002,1.3584 0.0002,3.0004 C0.0002,4.6824 1.3642,6.0004 3.0022,6.0004 C4.29284668,6.0004 5.0232,5.5934 5.6162,4.9814 C5.2054,4.51548783 5,4.28253174 5,4.28253174 Z" transform="translate(5 5)"/>
    </g>
  </g>
</svg>
