<svg xmlns="http://www.w3.org/2000/svg" width="16" height="16" viewBox="0 0 16 16">
  <g fill="none" fill-rule="evenodd">
    <path fill="#9AA7B0" fill-opacity=".8" d="M13,1.17070571 C14.1651924,1.58254212 15,2.69378117 15,4 L15,12 C15,13.3062188 14.1651924,14.4174579 13,14.8292943 L13,1.17070571 Z M3,14.8292943 C1.83480763,14.4174579 1,13.3062188 1,12 L1,4 C1,2.69378117 1.83480763,1.58254212 3,1.17070571 L3,14.8292943 Z"/>
    <rect width="8" height="14" x="4" y="1" fill="#B99BF8" fill-opacity=".6" rx="3"/>
    <path fill="#231F20" fill-opacity=".7" d="M2.2939,6 L-0.0001,0 L1.2,0 C2.3886,3.13933333 2.98856667,4.73933333 2.9999,4.8 L4.8,0 L5.9999,0 L3.7059,6 L2.2939,6 Z" transform="translate(5 5)"/>
  </g>
</svg>
