<svg xmlns="http://www.w3.org/2000/svg" xmlns:xlink="http://www.w3.org/1999/xlink" width="16" height="16" viewBox="0 0 16 16">
  <defs>
    <rect id="abstract_type_alias-a" width="8" height="14"/>
  </defs>
  <g fill="none" fill-rule="evenodd">
    <g transform="translate(4 1)">
      <mask id="abstract_type_alias-b" fill="#fff">
        <use xlink:href="#abstract_type_alias-a"/>
      </mask>
      <g fill="#B99BF8" fill-opacity=".6" mask="url(#abstract_type_alias-b)">
        <path d="M14,7 C14,10.866 10.866,14 7,14 C3.134,14 0,10.866 0,7 C0,3.134 3.134,0 7,0 C10.866,0 14,3.134 14,7" transform="translate(-3)"/>
      </g>
    </g>
    <path fill="#9AA7B0" fill-opacity=".8" d="M3 3C1.764 4.263 1 5.988 1 7.895 1 9.801 1.764 11.526 3 12.789L3 3zM13 3L13 12.789C14.236 11.526 15 9.801 15 7.895 15 5.988 14.236 4.262 13 3"/>
    <path fill="#231F20" fill-opacity=".7" d="M1,8 L2,8 L2,6 L3.5,6 L3.5,5 L2,5 C1.99687783,3.02835838 1.99509925,2.02835838 1.99466424,2 C1.98704681,1.50341351 2.13289549,1.0728225 2.43221029,0.972167969 C2.91964141,0.808253079 3.56884985,1.02114795 3.68984985,1.06414795 L3.98519897,0.226043701 C3.90948298,0.198825534 3.4559021,3.41060513e-13 2.81140137,3.41060513e-13 C2.16690063,3.41201026e-13 1.81677246,0.0614013672 1.4818929,0.388793945 C1.16513106,0.698473875 1.01614114,1.22015248 1.00124609,2 C1.00039414,2.04460465 0.999980878,4.95274463 1,5 C1.00000736,5.01819872 0.666674031,5.01819872 0,5 L0,5.972 L1,5.972 L1,8 Z" transform="matrix(1 0 0 -1 6 12)"/>
  </g>
</svg>
