<svg xmlns="http://www.w3.org/2000/svg" xmlns:xlink="http://www.w3.org/1999/xlink" width="16" height="16" viewBox="0 0 16 16">
  <defs>
    <polygon id="abstract_class_scala-a" points="0 0 8 0 8 8 4 8 4 14 0 14"/>
  </defs>
  <g fill="none" fill-rule="evenodd">
    <g transform="translate(1 1)">
      <path fill="#9AA7B0" fill-opacity=".8" d="M2 2.1055C.764 3.3685 0 5.0935 0 7.0005 0 8.9065.764 10.6315 2 11.8945L2 2.1055zM13.9794952 7.53948409C13.3816813 7.63993649 12.6989875 7.72873399 12 7.80758059L12 2.1055C13.236 3.3675 14 5.0935 14 7.0005 14 7.18188123 13.9930812 7.36162332 13.9794952 7.53948409z"/>
      <g transform="translate(3)">
        <mask id="abstract_class_scala-b" fill="#fff">
          <use xlink:href="#abstract_class_scala-a"/>
        </mask>
        <g mask="url(#abstract_class_scala-b)">
          <g transform="translate(-4 -1)">
            <path fill="#40B6E0" fill-opacity=".6" d="M15,8 C15,11.866 11.866,15 8,15 C4.134,15 1,11.866 1,8 C1,4.134 4.134,1 8,1 C11.866,1 15,4.134 15,8"/>
            <path fill="#231F20" fill-opacity=".7" d="M5,4.28253174 C4.53,4.74153174 4.028,4.978 3.1,5 C2.061,5.022 1,4.2794 1,3.0004 C1,1.7124 1.971,1 3.1,1 C3.94833171,1 4.54833171,1.18475342 4.9,1.55426025 L5.5162,0.836730957 C4.8293999,0.270175195 4.28826904,0.0004 3.0982,0.0004 C1.3402,0.0004 0.0002,1.3584 0.0002,3.0004 C0.0002,4.6824 1.3642,6.0004 3.0022,6.0004 C4.29284668,6.0004 5.0232,5.5934 5.6162,4.9814 C5.2054,4.51548783 5,4.28253174 5,4.28253174 Z" transform="translate(5 5)"/>
          </g>
        </g>
      </g>
    </g>
    <path fill="#DF2621" fill-rule="nonzero" d="M9 11.6220741C9 11.4699002 16 11.1655524 16 10.426422L16 9C16 9.76086957 9 10.0434783 9 10.1956522L9 11.6220741zM9 15.6220741C9 15.4699002 16 15.1655524 16 14.426422L16 13C16 13.7608696 9 14.0434783 9 14.1956522L9 15.6220741zM9 13.6220741C9 13.4699002 16 13.1655524 16 12.426422L16 11C16 11.7608696 9 12.0434783 9 12.1956522L9 13.6220741z"/>
  </g>
</svg>
