<svg xmlns="http://www.w3.org/2000/svg" xmlns:xlink="http://www.w3.org/1999/xlink" width="16" height="16" viewBox="0 0 16 16">
  <defs>
    <rect id="abstract_field_variable-a" width="8" height="14"/>
  </defs>
  <g fill="none" fill-rule="evenodd">
    <g transform="translate(4 1)">
      <mask id="abstract_field_variable-b" fill="#fff">
        <use xlink:href="#abstract_field_variable-a"/>
      </mask>
      <g mask="url(#abstract_field_variable-b)">
        <g transform="translate(-4 -1)">
          <path fill="#B99BF8" fill-opacity=".6" d="M15,8 C15,11.866 11.866,15 8,15 C4.134,15 1,11.866 1,8 C1,4.134 4.134,1 8,1 C11.866,1 15,4.134 15,8"/>
          <path fill="#231F20" fill-opacity=".7" d="M2.2939,6 L-0.0001,0 L1.2,0 C2.3886,3.13933333 2.98856667,4.73933333 2.9999,4.8 L4.8,0 L5.9999,0 L3.7059,6 L2.2939,6 Z" transform="translate(5 5)"/>
        </g>
      </g>
    </g>
    <path fill="#9AA7B0" fill-opacity=".8" d="M3 3C1.764 4.263 1 5.988 1 7.895 1 9.801 1.764 11.526 3 12.789L3 3zM13 3L13 12.789C14.236 11.526 15 9.801 15 7.895 15 5.988 14.236 4.262 13 3"/>
  </g>
</svg>
