<svg xmlns="http://www.w3.org/2000/svg" width="16" height="16" viewBox="0 0 16 16">
  <path fill="#9AA7B0" fill-opacity=".8" fill-rule="evenodd" d="M11.5534174,4.20350071 C10.6237336,3.33298523 9.37410937,2.79999995 7.99999976,2.79999995 C5.12811917,2.79999995 2.79999995,5.12811917 2.79999995,7.99999976 C2.79999995,10.8718804 5.12811917,13.1999996 7.99999976,13.1999996 C10.8718804,13.1999996 13.1999996,10.8718804 13.1999996,7.99999976 C13.1999996,6.58916536 12.6381442,5.30955931 11.7259824,4.3727306 L8.2477054,9.95967671 L6.089686,7.8757016 L11.5534174,4.20350071 Z M12.9497475,12.9497475 C10.2160774,15.6834175 5.78392257,15.6834175 3.05025253,12.9497475 C0.31658249,10.2160774 0.31658249,5.78392257 3.05025253,3.05025253 C5.78392257,0.31658249 10.2160774,0.31658249 12.9497475,3.05025253 C15.6834175,5.78392257 15.6834175,10.2160774 12.9497475,12.9497475 Z"/>
</svg>
