<svg xmlns="http://www.w3.org/2000/svg" width="16" height="16" viewBox="0 0 16 16">
  <path fill="#FF931E" fill-rule="evenodd" d="M14.9977 2.4905C14.9977 2.1935 14.7847 1.9995 14.5007 2.0005 12.3327 2.0025 10.1647 2.0015 7.9967 2.0015L1.4717 2.0015C1.2097 2.0015 1.0017 2.2075 1.0017 2.4655 1.0017 4.9455 1.0017 7.5445.9997 10.0245 2.5627 10.5795 5.1007 10.9415 7.9687 10.9415 10.8547 10.9415 13.4067 10.5755 14.9677 10.0135 14.9867 10.0075 14.9997 10.0005 14.9997 10.0005 14.9997 10.0005 14.9997 4.9945 14.9977 2.4905M7.9996 12.0003C5.1136 12.0003 2.5626 11.6343 1.0016 11.0733L1.0016 13.5383C1.0016 13.7923 1.2106 13.9993 1.4676 13.9993 5.8136 13.9993 10.1596 13.9983 14.5056 14.0003 14.7786 14.0003 14.9976 13.8073 14.9986 13.5063 14.9996 12.6953 14.9986 11.8843 14.9986 11.0733 13.4376 11.6343 10.8866 12.0003 7.9996 12.0003" opacity=".9"/>
</svg>
