<svg xmlns="http://www.w3.org/2000/svg" width="16" height="16" viewBox="0 0 16 16">
  <g fill="none" fill-rule="evenodd">
    <path fill="#DF2621" d="M2 5.7344C2 5.5024 14 5.0384 14 3.9104L14 1.0004C14 2.1614 2 2.5914 2 2.8244L2 5.7344zM10.9997 10.9221198L10.9997 13.8176733C7.445316 14.3165599 2 14.578118 2 14.7344L2 11.8244C2 11.6674444 7.445316 11.4210948 10.9997 10.9221198zM13.9997 10.010446C13.9998998 10.0071034 14 10.0037548 14 10.0004L14 12.9104C14 12.9136594 13.9998998 12.9169132 13.9997 12.9201616L13.9997 10.010446zM11.2984996 6.37888628C10.0676057 6.95827007 9.18004209 8.14677979 9.02438099 9.55584333 5.72511451 9.90385932 2 10.1051391 2 10.2344L2 7.3244C2 7.16297606 7.75977179 6.90699587 11.2984996 6.37888628z" opacity=".8"/>
    <path fill="#40B6E0" d="M12.25,16 L13.75,16 L13.75,14.5 L12.25,14.5 L12.25,16 Z M13,7 C11.3425,7 10,8.3425 10,10 L11.5,10 C11.5,9.175 12.175,8.5 13,8.5 C13.825,8.5 14.5,9.175 14.5,10 C14.5,11.5 12.25,11.3125 12.25,13.75 L13.75,13.75 C13.75,12.0625 16,11.875 16,10 C16,8.3425 14.6575,7 13,7 Z"/>
  </g>
</svg>
