<svg xmlns="http://www.w3.org/2000/svg" width="16" height="16" viewBox="0 0 16 16">
  <g fill="none" fill-rule="evenodd">
    <path fill="#F4AF3D" fill-opacity=".6" d="M15,8 C15,11.866 11.866,15 8,15 C4.134,15 1,11.866 1,8 C1,4.134 4.134,1 8,1 C11.866,1 15,4.134 15,8"/>
    <path fill="#231F20" fill-opacity=".7" d="M2.99180328,6 C1.2295082,6 0,4.64917127 0,3.01657459 L0,3 C0,1.36740331 1.24590164,0 3.00819672,0 C4.7704918,0 6,1.35082873 6,2.98342541 L6,3 C6,4.63259669 4.75409836,6 2.99180328,6 Z M3.00819672,5.05524862 C4.14754098,5.05524862 4.94262295,4.14364641 4.94262295,3.01657459 L4.94262295,3 C4.94262295,1.87292818 4.13114754,0.944751381 2.99180328,0.944751381 C1.85245902,0.944751381 1.05737705,1.85635359 1.05737705,2.98342541 L1.05737705,3 C1.05737705,4.12707182 1.86885246,5.05524862 3.00819672,5.05524862 Z" transform="translate(5 5)"/>
  </g>
</svg>
