<svg xmlns="http://www.w3.org/2000/svg" width="16" height="16" viewBox="0 0 16 16">
  <g fill="none" fill-rule="evenodd">
    <path fill="#9AA7B0" fill-opacity=".8" d="M7.72857063,7.49669038 C7.38224896,6.90068275 6.73667279,6.5001 5.997,6.5001 C4.894,6.5001 3.999,7.3941 4,8.4981 C4.001,9.6001 4.896,10.4951 6,10.4951 C6.03082614,10.4951 6.06148933,10.4944022 6.09197461,10.4930216 C6.03157151,10.8194805 6,11.1560533 6,11.5 C6,12.0200482 6.07217725,12.5232386 6.20706077,13.0001 L1,13.0001 L1,2.0511 C1,2.0231 1.023,2.0001 1.051,2.0001 L4.979,2.0001 C5.532,2.0001 6.305,2.3201 6.696,2.7111 L7.984,4.0001 L15,4.0001 L15,7.25716211 C14.0490595,6.47181764 12.8296292,6 11.5,6 C10.0401969,6 8.71322635,6.56872417 7.72857063,7.49669038 Z"/>
    <path fill="#F4AF3D" fill-opacity=".6" d="M16,11.5 C16,13.9852857 13.9852857,16 11.5,16 C9.01471429,16 7,13.9852857 7,11.5 C7,9.01471429 9.01471429,7 11.5,7 C13.9852857,7 16,9.01471429 16,11.5"/>
    <path fill="#231F20" fill-opacity=".7" d="M2.4931694,5 C1.02459016,5 0,3.87430939 0,2.51381215 L0,2.5 C0,1.13950276 1.03825137,0 2.5068306,0 C3.97540984,0 5,1.12569061 5,2.48618785 L5,2.5 C5,3.86049724 3.96174863,5 2.4931694,5 Z M2.5068306,4.21270718 C3.45628415,4.21270718 4.11885246,3.45303867 4.11885246,2.51381215 L4.11885246,2.5 C4.11885246,1.56077348 3.44262295,0.787292818 2.4931694,0.787292818 C1.54371585,0.787292818 0.881147541,1.54696133 0.881147541,2.48618785 L0.881147541,2.5 C0.881147541,3.43922652 1.55737705,4.21270718 2.5068306,4.21270718 Z" transform="translate(9 9)"/>
  </g>
</svg>
