<svg xmlns="http://www.w3.org/2000/svg" width="16" height="16" viewBox="0 0 16 16">
  <g fill="none" fill-rule="evenodd">
    <path fill="#F4AF3D" fill-opacity=".6" d="M14.7101226,10 L12,10 C11.4,9.33333333 10.8,9 10.2,9 C9.26666667,9 8.2,9 7,9 L7,14.9291115 C3.607701,14.4438834 1,11.5264786 1,8 C1,4.134 4.134,1 8,1 C11.866,1 15,4.134 15,8 C15,8.69497293 14.8987229,9.36629085 14.7101226,10 Z"/>
    <path fill="#231F20" fill-opacity=".7" d="M7,10.8451632 C5.78518964,10.4459705 5,9.32124399 5,8.01657459 L5,8 C5,6.36740331 6.24590164,5 8.00819672,5 C9.7704918,5 11,6.35082873 11,7.98342541 L11,8 C11,8.39009901 10.9288663,8.76505703 10.796551,9.10983736 C10.5977006,9.03661245 10.3988503,9 10.2,9 L9.71793401,9 C9.86296077,8.70849864 9.94262295,8.37333096 9.94262295,8.01657459 L9.94262295,8 C9.94262295,6.87292818 9.13114754,5.94475138 7.99180328,5.94475138 C6.85245902,5.94475138 6.05737705,6.85635359 6.05737705,7.98342541 L6.05737705,8 C6.05737705,8.75308983 6.41967489,9.41737939 7,9.77530773 L7,10.8451632 Z"/>
    <path fill="#9AA7B0" fill-opacity=".8" d="M8,16 L16,16 L16,11 L11.9911829,11 L11.2550457,10.3880855 C10.9837826,10.1557788 10.6375436,10.0188618 10.2736457,10 L8.02930286,10 C8.01311934,10 8,10.012523 8,10.0279709 L8,16 Z"/>
  </g>
</svg>
