<svg xmlns="http://www.w3.org/2000/svg" width="12" height="12" viewBox="0 0 12 12">
  <path fill="#AFB1B3" fill-rule="evenodd" d="M6.12126781,11.4850713 L5.87873219,10.5149287 C8.84034799,9.7745248 10,7.57118598 10,5 C10,3.47382337 8.39219269,2 6,2 C3.61614709,2 2,3.88550494 2,6 C2,7.42098861 2.86851709,8 4.5,8 C5.78642506,8 7,6.6515834 7,5 C7,4.27614237 6.72385763,4 6,4 C5.27614237,4 5,4.27614237 5,5 L4,5 C4,3.72385763 4.72385763,3 6,3 C7.27614237,3 8,3.72385763 8,5 C8,7.18174993 6.36357494,9 4.5,9 C2.38148291,9 1,8.07901139 1,6 C1,3.36449506 3.02671005,1 6,1 C8.92598913,1 11,2.90117663 11,5 C11,7.97881402 9.61419747,10.6118388 6.12126781,11.4850713 Z"/>
</svg>
