<svg xmlns="http://www.w3.org/2000/svg" width="16" height="16" viewBox="0 0 16 16">
  <g fill="none" fill-rule="evenodd">
    <rect width="2" height="10" x="4" y="-4" fill="#6E6E6E" transform="rotate(90 2 5)"/>
    <path fill="#6E6E6E" d="M11.9651869,16 C10.4768692,15.182243 9.7,14.0455607 9.7,12.5 C9.7,10.9544393 10.4768692,9.81775701 11.9651869,9 L12.3985981,9.66238318 C11.2373832,10.4392523 10.689486,11.2815421 10.689486,12.5 C10.689486,13.7184579 11.2373832,14.5607477 12.3985981,15.3376168 L11.9651869,16 Z M13.6170561,16 L13.1836449,15.3376168 C14.3448598,14.5607477 14.892757,13.7184579 14.892757,12.5 C14.892757,11.2815421 14.3448598,10.4392523 13.1836449,9.66238318 L13.6170561,9 C15.1053738,9.81775701 15.882243,10.9544393 15.882243,12.5 C15.882243,14.0455607 15.1053738,15.182243 13.6170561,16 Z"/>
  </g>
</svg>
