<svg xmlns="http://www.w3.org/2000/svg" width="13" height="13" viewBox="0 0 13 13">
  <g fill="none" fill-rule="evenodd">
    <polygon fill="#AFB1B3" points="6 10 2 10 2 5 11 5 11 6 12 6 12 2 1 2 1 11 6 11"/>
    <path fill="#AFB1B3" d="M12.999805,10.0345552 C12.9812824,11.6753873 11.6452163,13 10,13 C8.34325,13 7,11.65675 7,10 C7,8.34325 8.34325,7 10,7 C11.6452163,7 12.9812824,8.32461265 12.999805,9.96544483 C12.9980626,9.84997742 12.9881425,9.73686832 12.9745,9.625 L9.625,9.625 C9.41875,9.625 9.25,9.79375 9.25,10 C9.25,10.20625 9.41875,10.375 9.625,10.375 L12.9745,10.375 C12.9881425,10.2631317 12.9980626,10.1500226 12.9997464,10.0345442 Z M12.595675,8.5 L10.374925,8.5 C10.168675,8.5 9.999925,8.66875 9.999925,8.875 C9.999925,9.08125 10.168675,9.25 10.374925,9.25 L12.901675,9.25 C12.832675,8.9845 12.729925,8.7325 12.595675,8.5 Z M12.901825,10.75 L8.875075,10.75 C8.668075,10.75 8.500075,10.91875 8.500075,11.125 C8.500075,11.33125 8.668075,11.5 8.875075,11.5 L12.595825,11.5 C12.730075,11.2675 12.832825,11.0155 12.901825,10.75 Z"/>
  </g>
</svg>
