<svg xmlns="http://www.w3.org/2000/svg" width="16" height="16" viewBox="0 0 16 16">
  <g fill="none" fill-rule="evenodd">
    <path fill="#0E3A51" d="M15,8 C15,11.866 11.866,15 8,15 C4.134,15 1,11.866 1,8 C1,4.134 4.134,1 8,1 C11.866,1 15,4.134 15,8" opacity=".8"/>
    <path fill="#90CF3D" d="M13.9043,4.25 L8.8753,4.25 C8.3933,4.25 8.0003,4.644 8.0003,5.125 C8.0003,5.606 8.3933,6 8.8753,6 L14.7063,6 C14.5193,5.375 14.2463,4.789 13.9043,4.25"/>
    <path fill="#14A7CC" d="M15,8 C15,7.703 14.976,7.412 14.939,7.125 L7.125,7.125 C6.644,7.125 6.25,7.519 6.25,8 C6.25,8.481 6.644,8.875 7.125,8.875 L14.939,8.875 C14.976,8.588 15,8.297 15,8"/>
    <path fill="#DA3424" d="M14.7061,10 L5.3751,10 C4.8931,10 4.5001,10.394 4.5001,10.875 C4.5001,11.356 4.8931,11.75 5.3751,11.75 L13.9041,11.75 C14.2461,11.211 14.5191,10.625 14.7061,10"/>
  </g>
</svg>
