<svg xmlns="http://www.w3.org/2000/svg" width="13" height="13" viewBox="0 0 13 13">
  <path fill="#AFB1B3" fill-rule="evenodd" d="M10.9999608,5.52098916 C10.9886486,8.54890666 8.53057198,11 5.5,11 C2.46242857,11 0,8.53757143 0,5.5 C0,2.46242857 2.46242857,0 5.5,0 C8.53057198,0 10.9886486,2.45109334 10.9999608,5.47901084 C10.9988595,5.25292868 10.9802708,5.03123577 10.9520714,4.8125 L4.8125,4.8125 C4.43457143,4.8125 4.125,5.12207143 4.125,5.5 C4.125,5.87792857 4.43457143,6.1875 4.8125,6.1875 L10.9520714,6.1875 C10.9802708,5.96876423 10.9988595,5.74707132 10.9999493,5.52098706 Z M10.1390929,2.55357143 L6.18773571,2.55357143 C5.80902143,2.55357143 5.50023571,2.86314286 5.50023571,3.24107143 C5.50023571,3.619 5.80902143,3.92857143 6.18773571,3.92857143 L10.7692357,3.92857143 C10.6223071,3.4375 10.4078071,2.97707143 10.1390929,2.55357143 Z M10.7690786,7.07142857 L3.43757857,7.07142857 C3.05886429,7.07142857 2.75007857,7.381 2.75007857,7.75892857 C2.75007857,8.13685714 3.05886429,8.44642857 3.43757857,8.44642857 L10.1389357,8.44642857 C10.40765,8.02292857 10.62215,7.5625 10.7690786,7.07142857 Z" transform="translate(1 1)"/>
</svg>
