<svg xmlns="http://www.w3.org/2000/svg" width="16" height="16" viewBox="0 0 16 16">
  <g fill="none" fill-rule="evenodd">
    <path fill="#9AA7B0" fill-opacity=".8" d="M15,8.028 C14.165,7.388 13.131,7 12,7 C9.243,7 7,9.243 7,12 C7,12.343 7.043,12.675 7.109,13 L1,13 L1,2.05128 C1,2.02295884 1.02295884,2 1.05128,2 L4.97888,2 C5.61570121,2.03457993 6.22161957,2.28559443 6.69633,2.71149 L7.98457,4 L15,4 L15,8.028 Z"/>
    <path fill="#0E3A51" d="M16,12 C16,14.209 14.209,16 12,16 C9.791,16 8,14.209 8,12 C8,9.791 9.791,8 12,8 C14.209,8 16,9.791 16,12" opacity=".8"/>
    <path fill="#90E136" d="M15.4609,10 L12.4999,10 C12.2249,10 11.9999,10.225 11.9999,10.5 C11.9999,10.775 12.2249,11 12.4999,11 L15.8689,11 C15.7769,10.646 15.6399,10.31 15.4609,10"/>
    <path fill="#03C0EA" d="M16,12 C16,11.83 15.986,11.664 15.966,11.5 L11.5,11.5 C11.225,11.5 11,11.725 11,12 C11,12.275 11.225,12.5 11.5,12.5 L15.966,12.5 C15.986,12.336 16,12.17 16,12"/>
    <path fill="#F32F24" d="M15.8691,13 L10.5001,13 C10.2241,13 10.0001,13.225 10.0001,13.5 C10.0001,13.775 10.2241,14 10.5001,14 L15.4611,14 C15.6401,13.69 15.7771,13.354 15.8691,13"/>
  </g>
</svg>
