<svg xmlns="http://www.w3.org/2000/svg" width="13" height="13" viewBox="0 0 13 13">
  <g fill="none" fill-rule="evenodd">
    <polygon fill="#6E6E6E" points="6 10 2 10 2 5 11 5 11 6 12 6 12 2 1 2 1 11 6 11"/>
    <path fill="#6E6E6E" d="M5.99980505,3.03455517 C5.98128236,4.67538735 4.6452163,6 3,6 C1.34325,6 0,4.65675 0,3 C0,1.34325 1.34325,0 3,0 C4.6452163,0 5.98128236,1.32461265 5.99980505,2.96544483 C5.99806261,2.84997742 5.98814248,2.73686832 5.9745,2.625 L2.625,2.625 C2.41875,2.625 2.25,2.79375 2.25,3 C2.25,3.20625 2.41875,3.375 2.625,3.375 L5.9745,3.375 C5.98814248,3.26313168 5.99806261,3.15002258 5.99974645,3.03454421 Z M5.595675,1.5 L3.374925,1.5 C3.168675,1.5 2.999925,1.66875 2.999925,1.875 C2.999925,2.08125 3.168675,2.25 3.374925,2.25 L5.901675,2.25 C5.832675,1.9845 5.729925,1.7325 5.595675,1.5 Z M5.901825,3.75 L1.875075,3.75 C1.668075,3.75 1.500075,3.91875 1.500075,4.125 C1.500075,4.33125 1.668075,4.5 1.875075,4.5 L5.595825,4.5 C5.730075,4.2675 5.832825,4.0155 5.901825,3.75 Z" transform="translate(7 7)"/>
  </g>
</svg>
