<svg width="16" height="16" viewBox="0 0 16 16" fill="none" xmlns="http://www.w3.org/2000/svg">
<g clip-path="url(#clip0)">
<path fill-rule="evenodd" clip-rule="evenodd" d="M11.1447 4.21537L7.18471 0.25528L1.77522 1.70482L0.325714 7.11445L4.2857 11.0745L5.41752 10.7713C5.40531 10.5741 5.39999 10.3817 5.39999 10.2C5.39999 7.71474 7.41471 5.60001 9.89999 5.60001C10.1631 5.60001 10.4578 5.61324 10.7622 5.64295L11.1447 4.21537Z" fill="#6C4139"/>
<path fill-rule="evenodd" clip-rule="evenodd" d="M15.6493 12.0171L15.6493 15.5887L14.3909 14.3294C13.6065 15.1298 12.4953 15.6024 11.2882 15.5391C9.29544 15.4347 7.71524 13.9053 7.48318 11.9901L8.84426 12.1084C9.11211 13.2651 10.1186 14.1539 11.3635 14.2191C12.1798 14.2619 12.9312 13.9418 13.461 13.3998L12.0776 12.0171L15.6493 12.0171ZM11.7117 7.45807C13.6779 7.56112 15.2425 9.05147 15.5067 10.9309L14.1541 10.8131C13.866 9.68564 12.8729 8.82623 11.6495 8.76211C10.7972 8.71745 10.0156 9.06835 9.4832 9.65431L10.9167 11.0878L7.34501 11.0878L7.34501 7.51613L8.55354 8.72551C9.34051 7.89018 10.4758 7.39331 11.7117 7.45807Z" fill="#389FD6"/>
</g>
<defs>
<clipPath id="clip0">
<path d="M0 0H16V16H0V0Z" fill="white"/>
</clipPath>
</defs>
</svg>
