<svg width="16" height="16" viewBox="0 0 16 16" fill="none" xmlns="http://www.w3.org/2000/svg">
<g clip-path="url(#clip0)">
<path fill-rule="evenodd" clip-rule="evenodd" d="M11.149 4.21537L7.189 0.25528L1.77951 1.70482L0.330002 7.11445L4.28999 11.0745L5.42181 10.7713C5.4096 10.5741 5.40427 10.3817 5.40427 10.2C5.40427 7.71474 7.41899 5.60001 9.90427 5.60001C10.1674 5.60001 10.462 5.61324 10.7665 5.64295L11.149 4.21537Z" fill="#C8AF91"/>
<path fill-rule="evenodd" clip-rule="evenodd" d="M15.6536 12.0171L15.6536 15.5887L14.3952 14.3294C13.6108 15.1298 12.4996 15.6024 11.2925 15.5391C9.29973 15.4347 7.71952 13.9053 7.48746 11.9901L8.84855 12.1084C9.1164 13.2651 10.1229 14.1539 11.3678 14.2191C12.1841 14.2619 12.9355 13.9418 13.4653 13.3998L12.0819 12.0171L15.6536 12.0171ZM11.716 7.45807C13.6822 7.56112 15.2468 9.05147 15.511 10.9309L14.1584 10.8131C13.8703 9.68564 12.8771 8.82623 11.6537 8.76211C10.8014 8.71745 10.0199 9.06835 9.48749 9.65431L10.921 11.0878L7.34929 11.0878L7.34929 7.51613L8.55783 8.72551C9.34479 7.89018 10.4801 7.39331 11.716 7.45807Z" fill="#3592C4"/>
</g>
<defs>
<clipPath id="clip0">
<path d="M0 0H16V16H0V0Z" fill="white"/>
</clipPath>
</defs>
</svg>
