<svg xmlns="http://www.w3.org/2000/svg" width="16" height="16" viewBox="0 0 16 16">
  <g fill="none" fill-rule="evenodd">
    <path fill="#F98B9E" fill-opacity=".6" d="M14.9795205,8.53947985 C13.8357512,8.73167212 12.3812693,8.88120076 11.0964281,9 L8,9 L8,15 C4.134,15 1,11.866 1,8 C1,4.134 4.134,1 8,1 C11.866,1 15,4.134 15,8 C15,8.18152331 14.9930906,8.36143281 14.9795205,8.53947985 Z"/>
    <path fill="#DF2621" fill-rule="nonzero" d="M9 11.6220741C9 11.4699002 16 11.1655524 16 10.426422L16 9C16 9.76086957 9 10.0434783 9 10.1956522L9 11.6220741zM9 15.6220741C9 15.4699002 16 15.1655524 16 14.426422L16 13C16 13.7608696 9 14.0434783 9 14.1956522L9 15.6220741zM9 13.6220741C9 13.4699002 16 13.1655524 16 12.426422L16 11C16 11.7608696 9 12.0434783 9 12.1956522L9 13.6220741z"/>
    <path fill="#231F20" fill-opacity=".7" d="M8.5,11.048 L8.5,11.9933333 C8.0454172,11.970548 7.75845499,11.881585 7.4818929,11.6112061 C7.16513106,11.3015261 7.01614114,10.7798475 7.00124609,10 C7.00039414,9.95539535 6.99998088,7.04725537 7,7 C7.00000736,6.98180128 6.66667403,6.98180128 6,7 L6,6.028 L7,6.028 L7,4 L8,4 L8,6 L9.5,6 L9.5,7 L8,7 C7.99687783,8.97164162 7.99509925,9.97164162 7.99466424,10 C7.98704681,10.4965865 8.13289549,10.9271775 8.43221029,11.027832 C8.4544908,11.0353246 8.47710934,11.0420298 8.5,11.048 Z"/>
  </g>
</svg>
