<svg xmlns="http://www.w3.org/2000/svg" width="16" height="16" viewBox="0 0 16 16">
  <g fill="none" fill-rule="evenodd">
    <path fill="#DF2621" fill-rule="nonzero" d="M9,11.6220741 L9,10.1956522 C9,10.0434783 16,9.76086957 16,9 L16,10.426422 C16,11.1655524 9,11.4699002 9,11.6220741 Z M9,15.6220741 L9,14.1956522 C9,14.0434783 16,13.7608696 16,13 L16,14.426422 C16,15.1655524 9,15.4699002 9,15.6220741 Z M9,13.6220741 L9,12.1956522 C9,12.0434783 16,11.7608696 16,11 L16,12.426422 C16,13.1655524 9,13.4699002 9,13.6220741 Z"/>
    <polygon fill="#9AA7B0" fill-opacity=".8" points="8 12 2 12 2 5 14 5 14 8 15 8 15 2 1 2 1 13 8 13"/>
  </g>
</svg>
