<svg xmlns="http://www.w3.org/2000/svg" width="16" height="16" viewBox="0 0 16 16">
  <g fill="none" fill-rule="evenodd">
    <path fill="#DF2621" fill-rule="nonzero" d="M9 11.6220741C9 11.4699002 16 11.1655524 16 10.426422L16 9C16 9.76086957 9 10.0434783 9 10.1956522L9 11.6220741zM9 15.6220741C9 15.4699002 16 15.1655524 16 14.426422L16 13C16 13.7608696 9 14.0434783 9 14.1956522L9 15.6220741zM9 13.6220741C9 13.4699002 16 13.1655524 16 12.426422L16 11C16 11.7608696 9 12.0434783 9 12.1956522L9 13.6220741z"/>
    <polygon fill="#9AA7B0" fill-opacity=".8" points="7 1 3 5 7 5"/>
    <path fill="#9AA7B0" fill-opacity=".8" d="M8,14.9997 L3.0004,14.9997 L3.0004,5.9997 L8.0004,5.9997 L8.0004,0.9997 L13.0004,0.9997 L13.0004,6.9997 L13.0004,8.80753547 C12.3619243,8.87956039 11.7098427,8.94328234 11.0964281,9 L8,9 L8,14.9997 Z"/>
  </g>
</svg>
