<svg xmlns="http://www.w3.org/2000/svg" width="16" height="16" viewBox="0 0 16 16">
  <g fill="none" fill-rule="evenodd">
    <path fill="#9AA7B0" fill-opacity=".8" d="M15,8.53602839 C13.8531475,8.72988321 12.3889503,8.88049056 11.0964281,9 L8,9 L8,13 L1,13 L1,2.05128 C1,2.02295884 1.02295884,2 1.05128,2 L4.97888,2 C5.61570121,2.03457993 6.22161957,2.28559443 6.69633,2.71149 L7.98457,4 L15,4 L15,8.53602839 Z"/>
    <path fill="#DF2621" fill-rule="nonzero" d="M9 11.6220741C9 11.4699002 16 11.1655524 16 10.426422L16 9C16 9.76086957 9 10.0434783 9 10.1956522L9 11.6220741zM9 15.6220741C9 15.4699002 16 15.1655524 16 14.426422L16 13C16 13.7608696 9 14.0434783 9 14.1956522L9 15.6220741zM9 13.6220741C9 13.4699002 16 13.1655524 16 12.426422L16 11C16 11.7608696 9 12.0434783 9 12.1956522L9 13.6220741z"/>
  </g>
</svg>
