<svg xmlns="http://www.w3.org/2000/svg" width="16" height="16" viewBox="0 0 16 16">
  <g fill="none" fill-rule="evenodd">
    <path fill="#DF2621" fill-rule="nonzero" d="M9,11.6220741 L9,10.1956522 C9,10.0434783 16,9.76086957 16,9 L16,10.426422 C16,11.1655524 9,11.4699002 9,11.6220741 Z M9,15.6220741 L9,14.1956522 C9,14.0434783 16,13.7608696 16,13 L16,14.426422 C16,15.1655524 9,15.4699002 9,15.6220741 Z M9,13.6220741 L9,12.1956522 C9,12.0434783 16,11.7608696 16,11 L16,12.426422 C16,13.1655524 9,13.4699002 9,13.6220741 Z"/>
    <path fill="#62B543" d="M13.2173267,8.7826733 C12.5105331,8.86499661 11.7795065,8.93684107 11.0964281,9 L9,9 L9,3 L14,8 L13.2173267,8.7826733 Z"/>
    <polygon fill="#F26522" points="2 8 7 3 7 13"/>
  </g>
</svg>
