<svg xmlns="http://www.w3.org/2000/svg" width="16" height="16" viewBox="0 0 16 16">
  <g fill="none" fill-rule="evenodd">
    <polygon fill="#62B543" fill-opacity=".6" points="1 15 15 15 15 1 1 1"/>
    <polygon fill="#231F20" fill-opacity=".7" points="4 5 4 4 2 4 2 12 4 12 4 11 3 11 3 5"/>
    <polygon fill="#231F20" fill-opacity=".7" points="12 5 12 4 14 4 14 12 12 12 12 11 13 11 13 5"/>
    <polygon fill="#231F20" fill-opacity=".7" points="5.5 1 5.5 0 .5 0 .5 1 2.5 1 2.5 6 3.5 6 3.5 1" transform="translate(5 5)"/>
  </g>
</svg>
