<svg width="16" height="16" viewBox="0 0 16 16" fill="none" xmlns="http://www.w3.org/2000/svg">
<path d="M1 3.86667C1 2.83574 1.73127 2 2.63333 2H6.1217C6.39413 2 6.65477 2.11115 6.84336 2.30775L8.46667 4L13 4C14.1046 4 15 4.89543 15 6V7.99963C14.1643 7.37194 13.1256 7 12 7C9.23858 7 7 9.23858 7 12C7 12.7111 7.14845 13.3875 7.41604 14H2.63333C1.73127 14 1 13.1643 1 12.1333V3.86667Z" fill="#43454A"/>
<path d="M2.63333 3L6.1217 3L8.04022 5H13C13.5523 5 14 5.44771 14 6V7.41604C14.357 7.57202 14.6923 7.76849 15 7.99963V6C15 4.89543 14.1046 4 13 4L8.46667 4L6.84336 2.30775C6.65477 2.11115 6.39413 2 6.1217 2H2.63333C1.73127 2 1 2.83574 1 3.86667V12.1333C1 13.1643 1.73127 14 2.63333 14H7.41604C7.27732 13.6825 7.17062 13.3478 7.10002 13H2.63333C2.40481 13 2 12.7416 2 12.1333V3.86667C2 3.25841 2.40481 3 2.63333 3Z" fill="#CED0D6"/>
<path d="M10.9202 15.1342L8.89323 13.0892C8.7686 12.9634 8.71976 12.7811 8.76482 12.6099L9.49767 9.82537C9.54333 9.65185 9.67848 9.51611 9.85179 9.46967L12.5944 8.73479C12.7677 8.68835 12.9526 8.73834 13.0789 8.86578L15.1059 10.9108C15.2305 11.0366 15.2793 11.2189 15.2343 11.3901L14.5014 14.1746C14.4558 14.3482 14.3206 14.4839 14.1473 14.5303L11.4047 15.2652C11.2314 15.3117 11.0465 15.2617 10.9202 15.1342Z" stroke="#BA9752"/>
</svg>
