<svg width="16" height="16" viewBox="0 0 16 16" fill="none" xmlns="http://www.w3.org/2000/svg">
<path d="M1 3.86667C1 2.83574 1.73127 2 2.63333 2H6.1217C6.39413 2 6.65477 2.11115 6.84336 2.30775L8.46667 4L13 4C14.1046 4 15 4.89543 15 6V7.99963C14.1643 7.37194 13.1256 7 12 7C9.23858 7 7 9.23858 7 12C7 12.7111 7.14845 13.3875 7.41604 14H2.63333C1.73127 14 1 13.1643 1 12.1333V3.86667Z" fill="#43454A"/>
<path d="M2.63333 3L6.1217 3L8.04022 5H13C13.5523 5 14 5.44771 14 6V7.41604C14.357 7.57202 14.6923 7.76849 15 7.99963V6C15 4.89543 14.1046 4 13 4L8.46667 4L6.84336 2.30775C6.65477 2.11115 6.39413 2 6.1217 2H2.63333C1.73127 2 1 2.83574 1 3.86667V12.1333C1 13.1643 1.73127 14 2.63333 14H7.41604C7.27732 13.6825 7.17062 13.3478 7.10002 13H2.63333C2.40481 13 2 12.7416 2 12.1333V3.86667C2 3.25841 2.40481 3 2.63333 3Z" fill="#CED0D6"/>
<path fill-rule="evenodd" clip-rule="evenodd" d="M9.24875 12.7372L11.2757 14.7822L14.0183 14.0473L14.7511 11.2628L12.7242 9.21772L9.98159 9.9526L9.24875 12.7372ZM10.5654 15.4862L8.5385 13.4411C8.28924 13.1896 8.19156 12.8251 8.28168 12.4826L9.01452 9.69808C9.10586 9.35104 9.37614 9.07955 9.72277 8.98667L12.4654 8.25179C12.812 8.15892 13.1818 8.25889 13.4344 8.51377L15.4614 10.5588C15.7106 10.8103 15.8083 11.1749 15.7182 11.5173L14.9854 14.3019C14.894 14.6489 14.6237 14.9204 14.2771 15.0133L11.5345 15.7482C11.1879 15.841 10.8181 15.7411 10.5654 15.4862Z" fill="#BA9752"/>
</svg>
