<svg width="16" height="16" viewBox="0 0 16 16" fill="none" xmlns="http://www.w3.org/2000/svg">
<path fill-rule="evenodd" clip-rule="evenodd" d="M9.24875 12.7372L11.2757 14.7823L14.0183 14.0474L14.7511 11.2628L12.7242 9.21775L9.98159 9.95263L9.24875 12.7372ZM10.5654 15.4862L8.5385 13.4411C8.28924 13.1896 8.19156 12.8251 8.28168 12.4827L9.01452 9.69811C9.10586 9.35108 9.37614 9.07958 9.72277 8.9867L12.4654 8.25183C12.812 8.15895 13.1818 8.25892 13.4344 8.5138L15.4614 10.5589C15.7106 10.8104 15.8083 11.1749 15.7182 11.5173L14.9854 14.3019C14.894 14.6489 14.6237 14.9204 14.2771 15.0133L11.5345 15.7482C11.1879 15.8411 10.8181 15.7411 10.5654 15.4862Z" fill="#A46704"/>
<path d="M3 13V5.41421C3 5.149 3.10536 4.89464 3.29289 4.70711L6.70711 1.29289C6.89464 1.10536 7.149 1 7.41421 1H11C12.1046 1 13 1.89543 13 3V7.10002C12.6769 7.03443 12.3425 7 12 7C9.23858 7 7 9.23858 7 12C7 13.1256 7.37194 14.1643 7.99963 15H5C3.89543 15 3 14.1046 3 13Z" fill="#EBECF0"/>
<path fill-rule="evenodd" clip-rule="evenodd" d="M3 13V5.41421C3 5.149 3.10536 4.89464 3.29289 4.70711L6.70711 1.29289C6.89464 1.10536 7.149 1 7.41421 1H11C12.1046 1 13 1.89543 13 3V7.10002C12.6769 7.03443 12.3425 7 12 7V3C12 2.44772 11.5523 2 11 2L8 2V4C8 5.10457 7.10457 6 6 6H4L4 13C4 13.5523 4.44772 14 5 14H7.41604C7.57202 14.357 7.76849 14.6923 7.99963 15H5C3.89543 15 3 14.1046 3 13ZM4.41421 5L7 2.41421V4C7 4.55228 6.55228 5 6 5H4.41421Z" fill="#6C707E"/>
</svg>
