<svg width="16" height="16" viewBox="0 0 16 16" fill="none" xmlns="http://www.w3.org/2000/svg">
<path fill-rule="evenodd" clip-rule="evenodd" d="M3 2C1.89543 2 1 2.89543 1 4V12C1 13.1046 1.89543 14 3 14H7.41604C7.27732 13.6825 7.17062 13.3478 7.10002 13H3C2.44772 13 2 12.5523 2 12V6H14V7.41604C14.357 7.57202 14.6923 7.76849 15 7.99963V4C15 2.89543 14.1046 2 13 2H3ZM13 3H3C2.44772 3 2 3.44772 2 4V5H14V4C14 3.44772 13.5523 3 13 3Z" fill="#CED0D6"/>
<path fill-rule="evenodd" clip-rule="evenodd" d="M9.24875 12.7372L11.2757 14.7822L14.0183 14.0473L14.7511 11.2628L12.7242 9.21772L9.98159 9.9526L9.24875 12.7372ZM10.5654 15.4862L8.5385 13.4411C8.28924 13.1896 8.19156 12.8251 8.28168 12.4826L9.01452 9.69808C9.10586 9.35104 9.37614 9.07955 9.72277 8.98667L12.4654 8.25179C12.812 8.15892 13.1818 8.25889 13.4344 8.51377L15.4614 10.5588C15.7106 10.8103 15.8083 11.1749 15.7182 11.5173L14.9854 14.3019C14.894 14.6489 14.6237 14.9204 14.2771 15.0133L11.5345 15.7482C11.1879 15.841 10.8181 15.7411 10.5654 15.4862Z" fill="#BA9752"/>
</svg>
