<svg width="16" height="16" viewBox="0 0 16 16" fill="none" xmlns="http://www.w3.org/2000/svg">
<path d="M15 8L14.9999 8.04253L10.3509 8.50743C9.57666 8.58485 8.99908 9.23796 9 10V14.9291C8.6734 14.9758 8.33952 15 8 15C4.13401 15 1 11.866 1 8C1 4.13401 4.13401 1 8 1C11.866 1 15 4.13401 15 8Z" fill="#EDF3FF"/>
<path d="M7.06068 2.07352L6.90504 1.08571C5.49398 1.30803 4.13786 1.96288 3.05049 3.05026C1.96311 4.13764 1.30826 5.49375 1.08594 6.90482L2.07375 7.06045C2.26427 5.85125 2.82468 4.69027 3.75759 3.75736C4.6905 2.82446 5.85147 2.26404 7.06068 2.07352Z" fill="#3574F0"/>
<path d="M13.9267 7.06045L14.9145 6.90482C14.6922 5.49375 14.0374 4.13764 12.95 3.05026C11.8626 1.96288 10.5065 1.30803 9.09542 1.08571L8.93979 2.07352C10.149 2.26404 11.31 2.82446 12.2429 3.75736C13.1758 4.69027 13.7362 5.85125 13.9267 7.06045Z" fill="#3574F0"/>
<path d="M1.08594 9.09519C1.30826 10.5063 1.96311 11.8624 3.05049 12.9498C4.13786 14.0371 5.49398 14.692 6.90504 14.9143L7.06068 13.9265C5.85147 13.736 4.6905 13.1756 3.75759 12.2426C2.82468 11.3097 2.26427 10.1488 2.07375 8.93956L1.08594 9.09519Z" fill="#3574F0"/>
<path d="M15.5 9.5L10.5 10M15.5 12.25L10.5 12.75M15.5 15L10.5 15.5" stroke="#DB3B4B" stroke-linecap="round" stroke-linejoin="round"/>
<path d="M9 10.4254V11.3949C8.72351 11.4635 8.43228 11.5 8.13241 11.5C6.21321 11.5 4.78711 10.0062 4.78711 8C4.78711 5.99378 6.21321 4.5 8.13241 4.5C9.62136 4.5 10.8976 5.39917 11.2118 6.67541H10.1966C9.88241 5.94544 9.1041 5.42334 8.13241 5.42334C6.79332 5.42334 5.82647 6.49655 5.82647 8C5.82647 9.50345 6.79332 10.5767 8.13241 10.5767C8.44455 10.5767 8.73674 10.5228 9 10.4254Z" fill="#3574F0"/>
</svg>
