<svg width="16" height="16" viewBox="0 0 16 16" fill="none" xmlns="http://www.w3.org/2000/svg">
<path d="M12.9489 3.05025C15.6825 5.78392 15.6825 10.2161 12.9489 12.9497C10.2152 15.6834 5.78303 15.6834 3.04936 12.9497C0.315687 10.2161 0.315687 5.78392 3.04936 3.05025C5.78303 0.316582 10.2152 0.316583 12.9489 3.05025Z" fill="#FFF7F7"/>
<path fill-rule="evenodd" clip-rule="evenodd" d="M14.9134 6.90481L13.9256 7.06045C13.7351 5.85124 13.1747 4.69027 12.2417 3.75736C11.3088 2.82445 10.1479 2.26404 8.93866 2.07352L9.09429 1.0857C10.5054 1.30802 11.8615 1.96287 12.9489 3.05025C14.0362 4.13763 14.6911 5.49375 14.9134 6.90481ZM6.90392 1.0857L7.05955 2.07352C5.85035 2.26404 4.68937 2.82445 3.75646 3.75736C2.82356 4.69027 2.26314 5.85124 2.07262 7.06045L1.08481 6.90481C1.30713 5.49375 1.96198 4.13763 3.04936 3.05025C4.13674 1.96287 5.49285 1.30802 6.90392 1.0857ZM1.08481 9.09519C1.30713 10.5063 1.96198 11.8624 3.04936 12.9497C4.13674 14.0371 5.49285 14.692 6.90392 14.9143L7.05955 13.9265C5.85035 13.736 4.68937 13.1755 3.75646 12.2426C2.82356 11.3097 2.26314 10.1488 2.07262 8.93955L1.08481 9.09519ZM9.09429 14.9143L8.93866 13.9265C10.1479 13.736 11.3088 13.1755 12.2417 12.2426C13.1747 11.3097 13.7351 10.1488 13.9256 8.93955L14.9134 9.09519C14.6911 10.5063 14.0362 11.8624 12.9489 12.9497C11.8615 14.0371 10.5054 14.692 9.09429 14.9143Z" fill="#DB3B4B"/>
<path d="M7.54688 11.4H8.4668L10.8223 5.39999H9.79102L8.04492 10.1051L6.24023 5.39999H5.17969L7.54688 11.4Z" fill="#DB3B4B"/>
</svg>
