<svg width="16" height="16" viewBox="0 0 16 16" fill="none" xmlns="http://www.w3.org/2000/svg">
<path d="M15 8C15 11.866 11.866 15 8 15C4.13401 15 1 11.866 1 8L15 8Z" fill="#FFF4EB"/>
<path d="M15 8L1 8C1 4.13401 4.13401 1 8 1C11.866 1 15 4.13401 15 8Z" fill="#EDF3FF"/>
<path fill-rule="evenodd" clip-rule="evenodd" d="M1.08594 9.0952C1.30826 10.5063 1.96311 11.8624 3.05049 12.9498C4.13786 14.0371 5.49398 14.692 6.90504 14.9143L7.06068 13.9265C5.85147 13.736 4.6905 13.1756 3.75759 12.2426C2.82468 11.3097 2.26427 10.1488 2.07375 8.93956L1.08594 9.0952ZM9.09542 14.9143L8.93979 13.9265C10.149 13.736 11.31 13.1756 12.2429 12.2426C13.1758 11.3097 13.7362 10.1488 13.9267 8.93956L14.9145 9.0952C14.6922 10.5063 14.0374 11.8624 12.95 12.9498C11.8626 14.0371 10.5065 14.692 9.09542 14.9143Z" fill="#E66D17"/>
<path fill-rule="evenodd" clip-rule="evenodd" d="M14.9145 6.90482L13.9267 7.06045C13.7362 5.85125 13.1758 4.69027 12.2429 3.75736C11.31 2.82446 10.149 2.26404 8.93979 2.07352L9.09542 1.08571C10.5065 1.30803 11.8626 1.96288 12.95 3.05026C14.0374 4.13764 14.6922 5.49375 14.9145 6.90482ZM6.90504 1.08571L7.06068 2.07352C5.85147 2.26404 4.6905 2.82446 3.75759 3.75736C2.82468 4.69027 2.26427 5.85125 2.07375 7.06045L1.08594 6.90482C1.30826 5.49375 1.96311 4.13764 3.05049 3.05026C4.13786 1.96288 5.49398 1.30803 6.90504 1.08571Z" fill="#3574F0"/>
<path d="M8.13241 11.5C9.62136 11.5 10.8976 10.6008 11.2118 9.32459H10.1966C9.88241 10.0546 9.1041 10.5767 8.13241 10.5767C6.79332 10.5767 5.82647 9.50345 5.82647 8C5.82647 6.49655 6.79332 5.42334 8.13241 5.42334C9.1041 5.42334 9.88241 5.94544 10.1966 6.67541H11.2118C10.8976 5.39917 9.62136 4.5 8.13241 4.5C6.21321 4.5 4.78711 5.99378 4.78711 8C4.78711 10.0062 6.21321 11.5 8.13241 11.5Z" fill="#6C707E"/>
</svg>
