<svg width="17" height="16" viewBox="0 0 17 16" fill="none" xmlns="http://www.w3.org/2000/svg">
<path d="M4.5 2C4.5 2 1.79999 4 1.79999 8C1.79999 12 4.5 14 4.5 14M7.2998 14C7.2998 14 8.06466 13.4334 8.78021 12.3003C9.40906 11.3045 9.99983 9.87104 9.99983 8C9.99983 4 7.2998 2 7.2998 2" stroke="#548AF7" stroke-linecap="round"/>
<path d="M15.5 11.5H13H12H9.5C8.94772 11.5 8.5 11.9477 8.5 12.5C8.5 13.0523 8.94772 13.5 9.5 13.5H12H13H15.5C16.0523 13.5 16.5 13.0523 16.5 12.5C16.5 11.9477 16.0523 11.5 15.5 11.5Z" fill="#3574F0" stroke="white" stroke-linecap="round"/>
</svg>
