<svg width="16" height="16" viewBox="0 0 16 16" fill="none" xmlns="http://www.w3.org/2000/svg">
<path d="M4.85355 1.14645C4.65829 0.951184 4.34171 0.951184 4.14645 1.14645L4.10931 1.1848C4.08791 1.20734 4.05788 1.23958 4.02046 1.28128C3.94564 1.36465 3.84114 1.48597 3.71693 1.6433C3.46871 1.95771 3.14051 2.41752 2.81292 3.00718C2.15821 4.18567 1.5 5.89405 1.5 8C1.5 10.1059 2.15821 11.8143 2.81292 12.9928C3.14051 13.5825 3.46871 14.0423 3.71693 14.3567C3.84114 14.514 3.94564 14.6354 4.02046 14.7187L4.14488 14.852L4.14578 14.8529C4.34104 15.0481 4.65829 15.0488 4.85355 14.8536C5.04864 14.6585 5.04882 14.3423 4.85408 14.147L4.7647 14.0508C4.7028 13.9818 4.61198 13.8766 4.50182 13.7371C4.28129 13.4577 3.98449 13.0425 3.68708 12.5072C3.09179 11.4357 2.5 9.89405 2.5 8C2.5 6.10595 3.09179 4.56433 3.68708 3.49282C3.98449 2.95748 4.28129 2.54229 4.50182 2.26295C4.61198 2.12341 4.7028 2.01816 4.7647 1.94919L4.8538 1.85331C5.04882 1.65802 5.04873 1.34163 4.85355 1.14645Z" fill="#CED0D6"/>
<path d="M7.14645 1.14645C7.34171 0.951184 7.65829 0.951184 7.85355 1.14645L7.89069 1.1848C7.91209 1.20734 7.94212 1.23958 7.97954 1.28128C8.05436 1.36465 8.15886 1.48597 8.28307 1.6433C8.53129 1.95771 8.85949 2.41752 9.18708 3.00718C9.84179 4.18567 10.5 5.89405 10.5 8C10.5 9.11883 10.3142 10.1254 10.0419 11H9.5C9.30679 11 9.12211 11.0365 8.95249 11.1031C9.26997 10.2247 9.5 9.18085 9.5 8C9.5 6.10595 8.90821 4.56433 8.31292 3.49282C8.01551 2.95748 7.71871 2.54229 7.49818 2.26295C7.38802 2.12341 7.2972 2.01816 7.2353 1.94919L7.1462 1.85331C6.95118 1.65802 6.95127 1.34163 7.14645 1.14645Z" fill="#CED0D6"/>
<path d="M8.06296 12.9314C7.85406 13.2661 7.65647 13.5366 7.49818 13.7371C7.38802 13.8766 7.2972 13.9818 7.2353 14.0508L7.14592 14.147C6.95118 14.3423 6.95136 14.6585 7.14645 14.8536C7.34171 15.0488 7.65896 15.0481 7.85422 14.8529L7.85512 14.852L7.97954 14.7187C8.05436 14.6354 8.15886 14.514 8.28307 14.3567C8.40788 14.1986 8.55293 14.0037 8.70795 13.7741C8.40143 13.5831 8.16885 13.2846 8.06296 12.9314Z" fill="#CED0D6"/>
<path fill-rule="evenodd" clip-rule="evenodd" d="M12.5 9C12.7761 9 13 9.22386 13 9.5V12H15.5C15.7761 12 16 12.2239 16 12.5C16 12.7761 15.7761 13 15.5 13H13V15.5C13 15.7761 12.7761 16 12.5 16C12.2239 16 12 15.7761 12 15.5V13H9.5C9.22386 13 9 12.7761 9 12.5C9 12.2239 9.22386 12 9.5 12H12V9.5C12 9.22386 12.2239 9 12.5 9Z" fill="#548AF7"/>
</svg>
