<svg width="16" height="16" viewBox="0 0 16 16" fill="none" xmlns="http://www.w3.org/2000/svg">
<path d="M1 3.86667C1 2.83574 1.73127 2 2.63333 2H6.1217C6.39413 2 6.65477 2.11115 6.84336 2.30775L8.46667 4L13 4C14.1046 4 15 4.89543 15 6V11H14V10.5C14 10.1161 13.8536 9.73223 13.5607 9.43934L9.56066 5.43934C8.97487 4.85355 8.02513 4.85355 7.43934 5.43934C7.14645 5.73223 7 6.11612 7 6.5V7H5.5C4.67157 7 4 7.67157 4 8.5C4 9.32843 4.67157 10 5.5 10H7.08542C6.89933 10.5277 7.0173 11.1386 7.43934 11.5607L9.87868 14H2.63333C1.73127 14 1 13.1643 1 12.1333V3.86667Z" fill="#25324D"/>
<path d="M2.63333 3L6.1217 3L8.04022 5H13C13.5523 5 14 5.44771 14 6V11H15V6C15 4.89543 14.1046 4 13 4L8.46667 4L6.84336 2.30775C6.65477 2.11115 6.39413 2 6.1217 2H2.63333C1.73127 2 1 2.83574 1 3.86667V12.1333C1 13.1643 1.73127 14 2.63333 14H9.87868L8.87868 13H2.63333C2.40481 13 2 12.7416 2 12.1333V3.86667C2 3.25841 2.40481 3 2.63333 3Z" fill="#548AF7"/>
<path d="M8.14645 6.14645C8.34171 5.95118 8.65829 5.95118 8.85355 6.14645L11.2071 8.5L8.85355 10.8536C8.65829 11.0488 8.34171 11.0488 8.14645 10.8536C7.95118 10.6583 7.95118 10.3417 8.14645 10.1464L9.29289 9H5.5C5.22386 9 5 8.77614 5 8.5C5 8.22386 5.22386 8 5.5 8H9.29289L8.14645 6.85355C7.95118 6.65829 7.95118 6.34171 8.14645 6.14645Z" fill="#CED0D6"/>
<path d="M12.8536 10.1464C12.6583 9.95118 12.3417 9.95118 12.1464 10.1464L9.79289 12.5L12.1464 14.8536C12.3417 15.0488 12.6583 15.0488 12.8536 14.8536C13.0488 14.6583 13.0488 14.3417 12.8536 14.1464L11.7071 13H15.5C15.7761 13 16 12.7761 16 12.5C16 12.2239 15.7761 12 15.5 12H11.7071L12.8536 10.8536C13.0488 10.6583 13.0488 10.3417 12.8536 10.1464Z" fill="#CED0D6"/>
</svg>
