<svg width="64" height="64" viewBox="0 0 64 64" fill="none" xmlns="http://www.w3.org/2000/svg">
<path fill-rule="evenodd" clip-rule="evenodd" d="M24 44L40 57V48H49C50.1046 48 51 47.1046 51 46V42C51 40.8954 50.1046 40 49 40H40V31L24 44Z" fill="#CED0D6"/>
<path fill-rule="evenodd" clip-rule="evenodd" d="M46 60C44.8954 60 44 59.1046 44 58V52H53C54.1046 52 55 51.1046 55 50V38C55 36.8954 54.1046 36 53 36H44V6C44 4.89543 44.8954 4 46 4H58C59.1046 4 60 4.89543 60 6V58C60 59.1046 59.1046 60 58 60H46Z" fill="#548AF7"/>
<path fill-rule="evenodd" clip-rule="evenodd" d="M40 20L24 7V16H15C13.8954 16 13 16.8954 13 18V22C13 23.1046 13.8954 24 15 24H24V33L40 20Z" fill="#CED0D6"/>
<path fill-rule="evenodd" clip-rule="evenodd" d="M18 4C19.1046 4 20 4.89543 20 6V12H11C9.89543 12 9 12.8954 9 14V26C9 27.1046 9.89543 28 11 28H20V58C20 59.1046 19.1046 60 18 60H6C4.89543 60 4 59.1046 4 58V6C4 4.89543 4.89543 4 6 4H18Z" fill="#548AF7"/>
</svg>
