<svg width="16" height="16" viewBox="0 0 16 16" fill="none" xmlns="http://www.w3.org/2000/svg">
<path d="M1 8C1 11.866 4.13401 15 8 15C11.866 15 15 11.866 15 8H1Z" fill="#45322B"/>
<path d="M1 8C1 11.866 4.13401 15 8 15C11.866 15 15 11.866 15 8H14C14 11.3137 11.3137 14 8 14C4.68629 14 2 11.3137 2 8H1Z" fill="#C77D55"/>
<path d="M15 8C15 4.13401 11.866 1 8 1C4.13401 1 1 4.13401 1 8H15Z" fill="#25324D"/>
<path d="M14 8H15C15 4.13401 11.866 1 8 1C4.13401 1 1 4.13401 1 8H2C2 4.68629 4.68629 2 8 2C11.3137 2 14 4.68629 14 8Z" fill="#548AF7"/>
<path d="M8.13437 11.5C9.62332 11.5 10.8996 10.6008 11.2138 9.32459H10.1986C9.88437 10.0546 9.10605 10.5767 8.13437 10.5767C6.79528 10.5767 5.82843 9.50345 5.82843 8C5.82843 6.49655 6.79528 5.42334 8.13437 5.42334C9.10605 5.42334 9.88437 5.94544 10.1986 6.67541H11.2138C10.8996 5.39917 9.62332 4.5 8.13437 4.5C6.21517 4.5 4.78906 5.99378 4.78906 8C4.78906 10.0062 6.21517 11.5 8.13437 11.5Z" fill="#CED0D6"/>
</svg>
