<svg width="16" height="16" viewBox="0 0 16 16" fill="none" xmlns="http://www.w3.org/2000/svg">
<path d="M15 8C15 4.13401 11.866 1 8 1C4.13401 1 1 4.13401 1 8H15Z" fill="#25324D"/>
<path d="M14 8H15C15 4.13401 11.866 1 8 1C4.13401 1 1 4.13401 1 8H2C2 4.68629 4.68629 2 8 2C11.3137 2 14 4.68629 14 8Z" fill="#548AF7"/>
<path d="M15.5 9.5L10.5 10M15.5 12.25L10.5 12.75M15.5 15L10.5 15.5" stroke="#DB5C5C" stroke-linecap="round" stroke-linejoin="round"/>
<path d="M14.9999 8.04253C15 8.02837 15 8.01419 15 8H1C1 11.866 4.13401 15 8 15C8.33952 15 8.6734 14.9758 9 14.9291V9.99999C8.99909 9.23795 9.57667 8.58485 10.3509 8.50744L14.9999 8.04253Z" fill="#45322B"/>
<path d="M9 14.9291C8.6734 14.9758 8.33952 15 8 15C4.13401 15 1 11.866 1 8H2C2 11.3137 4.68629 14 8 14C8.34071 14 8.67479 13.9716 9 13.917V14.9291Z" fill="#C77D55"/>
<path d="M9 11.3953C8.72409 11.4637 8.43352 11.5 8.13437 11.5C6.21517 11.5 4.78906 10.0062 4.78906 8C4.78906 5.99378 6.21517 4.5 8.13437 4.5C9.62332 4.5 10.8996 5.39917 11.2138 6.67541H10.1986C9.88437 5.94544 9.10605 5.42334 8.13437 5.42334C6.79528 5.42334 5.82843 6.49655 5.82843 8C5.82843 9.50345 6.79528 10.5767 8.13437 10.5767C8.44574 10.5767 8.73725 10.523 9 10.4262V11.3953Z" fill="#CED0D6"/>
</svg>
