<svg width="16" height="16" viewBox="0 0 16 16" fill="none" xmlns="http://www.w3.org/2000/svg">
<path d="M15 8C15 8.36604 14.9719 8.72552 14.9178 9.0764L12.2356 9.52342C11.6113 11.259 9.95056 12.5 8 12.5V15C4.13401 15 1 11.866 1 8C1 4.13401 4.13401 1 8 1C11.866 1 15 4.13401 15 8Z" fill="#EDF3FF"/>
<path d="M15.5825 10.9932L12.1943 11.5579C12.4876 11.2125 12.7389 10.8305 12.9404 10.4198L15.4235 10.0059C15.6939 9.96386 15.9484 10.1472 15.9935 10.4178C16.0389 10.6902 15.8549 10.9478 15.5825 10.9932Z" fill="#DB3B4B"/>
<path d="M15.5823 12.9932C15.8547 12.9478 16.0387 12.6902 15.9933 12.4178C15.9479 12.1454 15.6903 11.9614 15.4179 12.0068L9.41788 13.0068C9.14549 13.0522 8.96148 13.3098 9.00688 13.5822C9.05228 13.8546 9.30989 14.0386 9.58228 13.9932L15.5823 12.9932Z" fill="#DB3B4B"/>
<path d="M15.5823 14.9932C15.8547 14.9478 16.0387 14.6902 15.9933 14.4178C15.9479 14.1454 15.6903 13.9614 15.4179 14.0068L9.41788 15.0068C9.14549 15.0522 8.96148 15.3098 9.00688 15.5822C9.05228 15.8546 9.30989 16.0386 9.58228 15.9932L15.5823 14.9932Z" fill="#DB3B4B"/>
<path d="M11.2118 9.32459C10.8976 10.6008 9.62136 11.5 8.13241 11.5C6.21321 11.5 4.78711 10.0062 4.78711 8C4.78711 5.99378 6.21321 4.5 8.13241 4.5C9.62136 4.5 10.8976 5.39917 11.2118 6.67541H10.1966C9.88241 5.94544 9.1041 5.42334 8.13241 5.42334C6.79332 5.42334 5.82647 6.49655 5.82647 8C5.82647 9.50345 6.79332 10.5767 8.13241 10.5767C9.1041 10.5767 9.88241 10.0546 10.1966 9.32459H11.2118Z" fill="#3574F0"/>
<path d="M2 8C2 11.3137 4.68629 14 8 14V15C4.13401 15 1 11.866 1 8C1 4.13401 4.13401 1 8 1C11.866 1 15 4.13401 15 8C15 8.36604 14.9719 8.72552 14.9178 9.0764L13.8694 9.25113C13.955 8.84758 14 8.42905 14 8C14 4.68629 11.3137 2 8 2C4.68629 2 2 4.68629 2 8Z" fill="#3574F0"/>
</svg>
