<svg width="16" height="16" viewBox="0 0 16 16" fill="none" xmlns="http://www.w3.org/2000/svg">
<path d="M15 8C15 8.36604 14.9719 8.72552 14.9178 9.0764L12.2356 9.52342C11.6113 11.259 9.95056 12.5 8 12.5V15C4.13401 15 1 11.866 1 8C1 4.13401 4.13401 1 8 1C11.866 1 15 4.13401 15 8Z" fill="#25324D"/>
<path d="M15.5825 10.9932L12.1943 11.5579C12.4876 11.2125 12.7389 10.8305 12.9404 10.4198L15.4235 10.0059C15.6939 9.96386 15.9484 10.1472 15.9935 10.4178C16.0389 10.6902 15.8549 10.9478 15.5825 10.9932Z" fill="#DB5C5C"/>
<path d="M15.5823 12.9932C15.8547 12.9478 16.0387 12.6902 15.9933 12.4178C15.9479 12.1454 15.6903 11.9614 15.4179 12.0068L9.41788 13.0068C9.14549 13.0522 8.96148 13.3098 9.00688 13.5822C9.05228 13.8546 9.30989 14.0386 9.58228 13.9932L15.5823 12.9932Z" fill="#DB5C5C"/>
<path d="M15.5823 14.9932C15.8547 14.9478 16.0387 14.6902 15.9933 14.4178C15.9479 14.1454 15.6903 13.9614 15.4179 14.0068L9.41788 15.0068C9.14549 15.0522 8.96148 15.3098 9.00688 15.5822C9.05228 15.8546 9.30989 16.0386 9.58228 15.9932L15.5823 14.9932Z" fill="#DB5C5C"/>
<path d="M5.49023 11.5H10.5102V10.585H6.48023V8.435H10.0702V7.515H6.48023V5.415H10.4102V4.5H5.49023V11.5Z" fill="#548AF7"/>
<path d="M2 8C2 11.3137 4.68629 14 8 14V15C4.13401 15 1 11.866 1 8C1 4.13401 4.13401 1 8 1C11.866 1 15 4.13401 15 8C15 8.36604 14.9719 8.72552 14.9178 9.0764L13.8694 9.25113C13.955 8.84758 14 8.42905 14 8C14 4.68629 11.3137 2 8 2C4.68629 2 2 4.68629 2 8Z" fill="#548AF7"/>
</svg>
