<svg width="16" height="16" viewBox="0 0 16 16" fill="none" xmlns="http://www.w3.org/2000/svg">
<path d="M15.5 9.5L10.5 10M15.5 12.25L10.5 12.75M15.5 15L10.5 15.5" stroke="#DB5C5C" stroke-linecap="round" stroke-linejoin="round"/>
<path d="M15 8L14.9999 8.04253L10.3509 8.50743C9.57666 8.58485 8.99908 9.23796 9 10V14.9291C8.6734 14.9758 8.33952 15 8 15C4.13401 15 1 11.866 1 8C1 4.13401 4.13401 1 8 1C11.866 1 15 4.13401 15 8Z" fill="#2F2936"/>
<path d="M9 11.5H5.49023V4.5H10.4102V5.415H6.48023V7.515H10.0702V8.435H6.48023V10.585H9V11.5Z" fill="#A571E6"/>
<path d="M9 13.917C8.67479 13.9716 8.34071 14 8 14C4.68629 14 2 11.3137 2 8C2 4.68629 4.68629 2 8 2C11.3137 2 14 4.68629 14 8C14 8.04769 13.9994 8.09526 13.9983 8.14269L14.9999 8.04253L15 8C15 4.13401 11.866 1 8 1C4.13401 1 1 4.13401 1 8C1 11.866 4.13401 15 8 15C8.33952 15 8.6734 14.9758 9 14.9291V13.917Z" fill="#A571E6"/>
</svg>
