<svg width="16" height="16" viewBox="0 0 16 16" fill="none" xmlns="http://www.w3.org/2000/svg">
<path d="M2 4C2 2.89543 2.89543 2 4 2H12C13.1046 2 14 2.89543 14 4V12C14 13.1046 13.1046 14 12 14H4C2.89543 14 2 13.1046 2 12V4Z" fill="#2F2936"/>
<path d="M7.5459 11.4H8.46582L10.8213 5.39999H9.79004L8.04395 10.1051L6.23926 5.39999H5.17871L7.5459 11.4Z" fill="#B589EC"/>
<path d="M9 3H12C12.5523 3 13 3.44772 13 4V7H14V4C14 2.89543 13.1046 2 12 2H9V3Z" fill="#B589EC"/>
<path d="M7 3V2H4C2.89543 2 2 2.89543 2 4V7H3V4C3 3.44772 3.44772 3 4 3H7Z" fill="#B589EC"/>
<path d="M3 9H2V12C2 13.1046 2.89543 14 4 14H7V13H4C3.44772 13 3 12.5523 3 12V9Z" fill="#B589EC"/>
<path d="M9 13V14H12C13.1046 14 14 13.1046 14 12V9H13V12C13 12.5523 12.5523 13 12 13H9Z" fill="#B589EC"/>
</svg>
