<svg width="16" height="16" viewBox="0 0 16 16" fill="none" xmlns="http://www.w3.org/2000/svg">
<path d="M12.99 13.545C12.99 13.3317 13.0283 13.1433 13.105 12.98C13.1817 12.8133 13.2733 12.67 13.38 12.55C13.4867 12.43 13.63 12.29 13.81 12.13C13.9833 11.97 14.12 11.835 14.22 11.725C14.32 11.615 14.4033 11.485 14.47 11.335C14.54 11.185 14.575 11.0167 14.575 10.83C14.575 10.6267 14.53 10.4467 14.44 10.29C14.3533 10.1333 14.2317 10.0117 14.075 9.925C13.9217 9.835 13.745 9.79 13.545 9.79C13.3217 9.79 13.1233 9.84 12.95 9.94C12.7767 10.0367 12.6433 10.1733 12.55 10.35C12.46 10.5233 12.415 10.725 12.415 10.955H11.375C11.375 10.5417 11.465 10.1783 11.645 9.865C11.8283 9.54834 12.0833 9.305 12.41 9.135C12.74 8.965 13.1217 8.88 13.555 8.88C13.9717 8.88 14.3367 8.96 14.65 9.12C14.9633 9.27667 15.205 9.49834 15.375 9.785C15.545 10.0683 15.6283 10.3983 15.625 10.775C15.625 11.065 15.5783 11.3183 15.485 11.535C15.395 11.7517 15.285 11.9333 15.155 12.08C15.025 12.2267 14.8567 12.39 14.65 12.57C14.4967 12.7033 14.375 12.8167 14.285 12.91C14.1983 13.0033 14.1267 13.1067 14.07 13.22C14.0133 13.3333 13.985 13.4583 13.985 13.595V13.785H12.99V13.545ZM12.885 14.755H14.13V16H12.885V14.755Z" fill="#CED0D6"/>
<path fill-rule="evenodd" clip-rule="evenodd" d="M4.80099 1.8199C3.77859 1.92214 3 2.78247 3 3.80998V5.5L13 4.5V1L4.80099 1.8199ZM3 6.75V10.25L10.7171 9.47829C10.7365 9.44085 10.7567 9.40371 10.7779 9.36688L10.7796 9.36397C11.0587 8.88176 11.4543 8.50505 11.9484 8.24794L11.952 8.24602C12.2818 8.07613 12.6339 7.96987 13 7.91805V5.75L3 6.75ZM10.38 10.762C10.3766 10.826 10.375 10.8904 10.375 10.955V11.955H12.4682C12.3159 12.1397 12.1923 12.3436 12.093 12.5588C11.9449 12.8761 11.885 13.2126 11.885 13.545V13.755V13.984C11.6753 14.0875 11.4441 14.1556 11.199 14.1801L3 15V11.5L10.38 10.762Z" fill="#DB5C5C"/>
</svg>
