<svg width="16" height="16" viewBox="0 0 16 16" fill="none" xmlns="http://www.w3.org/2000/svg">
<path d="M15.5 9.5L10.5 10M15.5 12.25L10.5 12.75M15.5 15L10.5 15.5" stroke="#DB3B4B" stroke-linecap="round" stroke-linejoin="round"/>
<path d="M14.9999 8.04253C15 8.02837 15 8.01419 15 8C15 4.13401 11.866 1 8 1C4.13401 1 1 4.13401 1 8C1 11.866 4.13401 15 8 15C8.33952 15 8.6734 14.9758 9 14.9291V10C8.99909 9.23796 9.57666 8.58485 10.3509 8.50744L14.9999 8.04253Z" fill="#FFF4EB"/>
<path d="M14.9999 8.04253C15 8.02837 15 8.01419 15 8C15 4.13401 11.866 1 8 1C4.13401 1 1 4.13401 1 8C1 11.866 4.13401 15 8 15C8.33952 15 8.6734 14.9758 9 14.9291V13.917C8.67479 13.9716 8.34071 14 8 14C4.68629 14 2 11.3137 2 8C2 4.68629 4.68629 2 8 2C11.3137 2 14 4.68629 14 8C14 8.04769 13.9994 8.09526 13.9983 8.14269L14.9999 8.04253Z" fill="#E66D17"/>
<path d="M10.9686 8.44567C10.9893 8.29996 11 8.15112 11 8V7.98343C11 6.35083 9.77049 5 8.0082 5C6.2459 5 5 6.3674 5 8V8.01657C5 9.64917 6.22951 11 7.9918 11C8.35144 11 8.68957 10.9431 9 10.8385V10C8.99991 9.92443 9.00552 9.84993 9.01643 9.77695C8.72978 9.95388 8.38813 10.0552 8.0082 10.0552C6.86885 10.0552 6.05738 9.12707 6.05738 8V7.98343C6.05738 6.85635 6.85246 5.94475 7.9918 5.94475C9.13115 5.94475 9.94262 6.87293 9.94262 8V8.01657C9.94262 8.23595 9.9125 8.44716 9.85558 8.64508C10.0074 8.57286 10.174 8.52512 10.3509 8.50744L10.9686 8.44567Z" fill="#E66D17"/>
</svg>
