<svg width="16" height="16" viewBox="0 0 16 16" fill="none" xmlns="http://www.w3.org/2000/svg">
<circle cx="8" cy="8" r="6.5" fill="#45322B" stroke="#C77D55"/>
<path fill-rule="evenodd" clip-rule="evenodd" d="M7.9918 11C6.22951 11 5 9.64917 5 8.01657V8C5 6.3674 6.2459 5 8.0082 5C9.77049 5 11 6.35083 11 7.98343V8C11 9.6326 9.7541 11 7.9918 11ZM8.0082 10.0552C9.14754 10.0552 9.94262 9.14365 9.94262 8.01657V8C9.94262 6.87293 9.13115 5.94475 7.9918 5.94475C6.85246 5.94475 6.05738 6.85635 6.05738 7.98343V8C6.05738 9.12707 6.86885 10.0552 8.0082 10.0552Z" fill="#C77D55"/>
</svg>
