<svg width="16" height="16" viewBox="0 0 16 16" fill="none" xmlns="http://www.w3.org/2000/svg">
<path d="M15 8C15 8.33952 14.9758 8.6734 14.9291 9H12.9142L12.2071 8.29289C12.0196 8.10536 11.7652 8 11.5 8H9C7.89543 8 7 8.89543 7 10C7 10.644 6.99996 11.288 6.99992 11.9319C6.99985 12.931 6.99978 13.93 6.99988 14.9291C3.60764 14.4438 1 11.5264 1 8C1 4.13401 4.13401 1 8 1C11.866 1 15 4.13401 15 8Z" fill="#FFF4EB"/>
<path d="M2 8C2 10.9729 4.1622 13.4409 6.99983 13.917C6.99983 14.2544 6.99984 14.5917 6.99988 14.9291C3.60764 14.4438 1 11.5264 1 8C1 4.13401 4.13401 1 8 1C11.866 1 15 4.13401 15 8C15 8.33952 14.9758 8.6734 14.9291 9H13.917C13.9716 8.67479 14 8.34071 14 8C14 4.68629 11.3137 2 8 2C4.68629 2 2 4.68629 2 8Z" fill="#E66D17"/>
<path d="M8 10V15C8 15.5523 8.44772 16 9 16H15C15.5523 16 16 15.5523 16 15V11C16 10.4477 15.5523 10 15 10H12.5L11.5 9H9C8.44772 9 8 9.44772 8 10Z" fill="#EBECF0"/>
<path fill-rule="evenodd" clip-rule="evenodd" d="M12.5 10L11.5 9H9C8.44772 9 8 9.44772 8 10V15C8 15.5523 8.44772 16 9 16H15C15.5523 16 16 15.5523 16 15V11C16 10.4477 15.5523 10 15 10H12.5ZM11.0858 10L9 10V15H15V11H12.5C12.2348 11 11.9804 10.8946 11.7929 10.7071L11.0858 10Z" fill="#6C707E"/>
</svg>
