<svg width="17" height="16" viewBox="0 0 17 16" fill="none" xmlns="http://www.w3.org/2000/svg">
<path fill-rule="evenodd" clip-rule="evenodd" d="M2.63333 2C1.73127 2 1 2.83574 1 3.86667V12.1333C1 13.1643 1.73127 14 2.63333 14H8.28031C8.10268 13.4877 8.01611 12.9455 8.01611 12.38C8.01611 11.5446 8.20507 10.7605 8.59877 10.0502L8.59978 10.0484C8.99196 9.3443 9.53658 8.78007 10.2257 8.37424C10.9218 7.96093 11.6941 7.76 12.5186 7.76C13.338 7.76 14.1062 7.96166 14.8003 8.37353C14.8683 8.41334 14.9349 8.45469 15 8.49755V6C15 4.89543 14.1046 4 13 4H8.46667L6.84336 2.30775C6.65477 2.11115 6.39413 2 6.1217 2H2.63333ZM7 9C7 9.55228 6.55228 10 6 10C5.44772 10 5 9.55228 5 9C5 8.44772 5.44772 8 6 8C6.55228 8 7 8.44772 7 9Z" fill="#EBECF0"/>
<path d="M2.63333 3H6.1217L8.04022 5H13C13.5523 5 14 5.44771 14 6V8.00206C14.2762 8.09735 14.5433 8.22103 14.8003 8.37353C14.8683 8.41334 14.9349 8.45469 15 8.49755V6C15 4.89543 14.1046 4 13 4H8.46667L6.84336 2.30775C6.65477 2.11115 6.39413 2 6.1217 2H2.63333C1.73127 2 1 2.83574 1 3.86667V12.1333C1 13.1643 1.73127 14 2.63333 14H8.28031C8.16864 13.678 8.09296 13.3441 8.05215 13H2.63333C2.40481 13 2 12.7416 2 12.1333V3.86667C2 3.25841 2.40481 3 2.63333 3Z" fill="#6C707E"/>
<path fill-rule="evenodd" clip-rule="evenodd" d="M6 7C4.89543 7 4 7.89543 4 9C4 10.1046 4.89543 11 6 11C7.10457 11 8 10.1046 8 9C8 7.89543 7.10457 7 6 7ZM6 10C6.55228 10 7 9.55228 7 9C7 8.44772 6.55228 8 6 8C5.44772 8 5 8.44772 5 9C5 9.55228 5.44772 10 6 10Z" fill="#6C707E"/>
<path d="M12.5186 15.1C12.9876 15.1 13.4114 14.9833 13.79 14.75C14.1685 14.5167 14.465 14.1933 14.6794 13.78C14.8938 13.3667 15.001 12.9 15.001 12.38C15.001 11.8567 14.8938 11.3883 14.6794 10.975C14.4684 10.5617 14.1736 10.24 13.795 10.01C13.4198 9.77667 12.9943 9.66 12.5186 9.66C12.0463 9.66 11.6208 9.77667 11.2422 10.01C10.867 10.2433 10.5722 10.5667 10.3578 10.98C10.1434 11.39 10.0362 11.8567 10.0362 12.38C10.0362 12.9033 10.1434 13.3717 10.3578 13.785C10.5722 14.195 10.867 14.5167 11.2422 14.75C11.6208 14.9833 12.0463 15.1 12.5186 15.1ZM12.5186 16C11.862 16 11.2674 15.8433 10.7347 15.53C10.202 15.2133 9.78161 14.78 9.4734 14.23C9.16854 13.6767 9.01611 13.06 9.01611 12.38C9.01611 11.7 9.16854 11.085 9.4734 10.535C9.78161 9.98167 10.202 9.54834 10.7347 9.235C11.2674 8.91834 11.862 8.76 12.5186 8.76C13.1685 8.76 13.7598 8.91834 14.2925 9.235C14.8285 9.54834 15.2489 9.98167 15.5538 10.535C15.862 11.085 16.0161 11.7 16.0161 12.38C16.0161 13.06 15.862 13.6767 15.5538 14.23C15.2489 14.78 14.8285 15.2133 14.2925 15.53C13.7598 15.8433 13.1685 16 12.5186 16Z" fill="#F28C35"/>
</svg>
