<svg width="16" height="16" viewBox="0 0 16 16" fill="none" xmlns="http://www.w3.org/2000/svg">
<circle cx="8" cy="8" r="6.5" fill="#FFF4EB" stroke="#E66D17"/>
<path d="M8.56983 5C7.72605 5 7.06238 5.37098 6.68167 5.99832V5.12281H5.69922V12H6.70214V9.52032C7.08591 10.1272 7.74089 10.4854 8.56983 10.4854C10.0282 10.4854 11.0464 9.36988 11.0464 7.74269C11.0464 6.1155 10.0282 5 8.56983 5ZM8.36004 9.5848C7.3827 9.5848 6.70214 8.8326 6.70214 7.74269C6.70214 6.65278 7.3827 5.90058 8.36004 5.90058C9.33226 5.90058 10.0026 6.65278 10.0026 7.74269C10.0026 8.8326 9.33226 9.5848 8.36004 9.5848Z" fill="#E66D17"/>
</svg>
