<svg width="12" height="12" viewBox="0 0 12 12" fill="none" xmlns="http://www.w3.org/2000/svg">
<path d="M7 3C5.34315 3 4 4.34315 4 6C4 7.10457 4.89543 8 6 8C7.10457 8 8 7.10457 8 6C8 5.44772 7.55228 5 7 5C6.44772 5 6 5.44772 6 6C6 6.27614 5.77614 6.5 5.5 6.5C5.22386 6.5 5 6.27614 5 6C5 4.89543 5.89543 4 7 4C8.10457 4 9 4.89543 9 6C9 7.65685 7.65685 9 6 9C4.34315 9 3 7.65685 3 6C3 3.79086 4.79086 2 7 2C9.20914 2 11 3.79086 11 6C11 8.76142 8.76142 11 6 11C3.23858 11 1 8.76142 1 6C1 5.72386 1.22386 5.5 1.5 5.5C1.77614 5.5 2 5.72386 2 6C2 8.20914 3.79086 10 6 10C8.20914 10 10 8.20914 10 6C10 4.34315 8.65685 3 7 3Z" fill="#6C707E"/>
</svg>
