<svg width="16" height="16" viewBox="0 0 16 16" fill="none" xmlns="http://www.w3.org/2000/svg">
<path d="M3.5 5.91421C3.5 5.649 3.60536 5.39464 3.79289 5.20711L7.20711 1.79289C7.39464 1.60536 7.649 1.5 7.91421 1.5H11.5C12.0523 1.5 12.5 1.94772 12.5 2.5V7.02469C12.3355 7.00836 12.1687 7 12 7C9.23858 7 7 9.23858 7 12C7 12.9107 7.24349 13.7646 7.66891 14.5H4.5C3.94772 14.5 3.5 14.0523 3.5 13.5V5.91421Z" fill="#EBECF0"/>
<path fill-rule="evenodd" clip-rule="evenodd" d="M6.85355 1.43934C7.13486 1.15803 7.51639 1 7.91421 1H11.5C12.3284 1 13 1.67157 13 2.5V7.10002C12.6769 7.03443 12.3425 7 12 7V2.5C12 2.22386 11.7761 2 11.5 2H8V4.5C8 5.32843 7.32843 6 6.5 6H4V13.5C4 13.7761 4.22386 14 4.5 14H7.41604C7.57202 14.357 7.76849 14.6923 7.99963 15H4.5C3.67157 15 3 14.3284 3 13.5V5.91421C3 5.51639 3.15804 5.13486 3.43934 4.85355L6.85355 1.43934ZM4.70711 5L7 2.70711V4.5C7 4.77614 6.77614 5 6.5 5H4.70711Z" fill="#6C707E"/>
<path d="M10.9202 15.1342L8.89323 13.0892C8.7686 12.9634 8.71976 12.7811 8.76482 12.6099L9.49767 9.82537C9.54333 9.65185 9.67848 9.5161 9.85179 9.46966L12.5944 8.73478C12.7677 8.68834 12.9526 8.73833 13.0789 8.86577L15.1059 10.9108C15.2305 11.0366 15.2793 11.2189 15.2343 11.3901L14.5014 14.1746C14.4558 14.3482 14.3206 14.4839 14.1473 14.5303L11.4047 15.2652C11.2314 15.3117 11.0465 15.2617 10.9202 15.1342Z" stroke="#7D5020"/>
</svg>
