<svg width="20" height="20" viewBox="0 0 20 20" fill="none" xmlns="http://www.w3.org/2000/svg">
<path fill-rule="evenodd" clip-rule="evenodd" d="M3 2C1.89543 2 1 2.89543 1 4V16C1 17.1046 1.89543 18 3 18H9.40607L9.23192 17.8258C8.86538 17.459 8.62789 16.9946 8.53917 16.5H3C2.72386 16.5 2.5 16.2761 2.5 16V7.5H17.5V8.95731C17.6172 9.03973 17.7283 9.13283 17.8316 9.23625L19 10.4052V4C19 2.89543 18.1046 2 17 2H3ZM17 3.5H3C2.72386 3.5 2.5 3.72386 2.5 4V6H17.5V4C17.5 3.72386 17.2761 3.5 17 3.5ZM17.5293 17.5314L14.0921 18.4447L11.5576 15.909L12.4708 12.4686L15.9079 11.5553L18.4424 14.091L17.5293 17.5314ZM10.2928 16.7654L13.2293 19.7034C13.4846 19.9587 13.8582 20.0589 14.2085 19.9658L18.1894 18.9081C18.5396 18.815 18.8127 18.543 18.905 18.1953L19.9667 14.195C20.0578 13.8519 19.9591 13.4866 19.7072 13.2346L16.7707 10.2966C16.5154 10.0413 16.1418 9.94111 15.7915 10.0342L11.8106 11.0919C11.4604 11.185 11.1873 11.457 11.095 11.8047L10.0333 15.805C9.94224 16.1481 10.0409 16.5134 10.2928 16.7654Z" fill="#6C707E"/>
</svg>
