<svg width="16" height="16" viewBox="0 0 16 16" fill="none" xmlns="http://www.w3.org/2000/svg">
<path d="M1 3.86667C1 2.83574 1.73127 2 2.63333 2H6.1217C6.39413 2 6.65477 2.11115 6.84336 2.30775L8.46667 4L13 4C14.1046 4 15 4.89543 15 6V9.06269L9.28006 10.016C8.9749 10.0608 8.69962 10.1976 8.48323 10.3972C8.18725 10.6702 8.00144 11.0609 8.00001 11.495L8 11.5V14H2.63333C1.73127 14 1 13.1643 1 12.1333V3.86667Z" fill="#43454A"/>
<path d="M2.63333 3L6.1217 3L8.04022 5H13C13.5523 5 14 5.44771 14 6V9.22935L15 9.06269V6C15 4.89543 14.1046 4 13 4L8.46667 4L6.84336 2.30775C6.65477 2.11115 6.39413 2 6.1217 2H2.63333C1.73127 2 1 2.83574 1 3.86667V12.1333C1 13.1643 1.73127 14 2.63333 14H8V13H2.63333C2.40481 13 2 12.7416 2 12.1333V3.86667C2 3.25841 2.40481 3 2.63333 3Z" fill="#CED0D6"/>
<path fill-rule="evenodd" clip-rule="evenodd" d="M15.9933 10.4178C16.0387 10.6902 15.8547 10.9478 15.5823 10.9932L9.58228 11.9932C9.30989 12.0386 9.05228 11.8546 9.00688 11.5822C8.96148 11.3098 9.14549 11.0522 9.41788 11.0068L15.4179 10.0068C15.6903 9.96141 15.9479 10.1454 15.9933 10.4178ZM15.9933 12.4178C16.0387 12.6902 15.8547 12.9478 15.5823 12.9932L9.58228 13.9932C9.30989 14.0386 9.05228 13.8546 9.00688 13.5822C8.96148 13.3098 9.14549 13.0522 9.41788 13.0068L15.4179 12.0068C15.6903 11.9614 15.9479 12.1454 15.9933 12.4178ZM15.9933 14.4178C16.0387 14.6902 15.8547 14.9478 15.5823 14.9932L9.58228 15.9932C9.30989 16.0386 9.05228 15.8546 9.00688 15.5822C8.96148 15.3098 9.14549 15.0522 9.41788 15.0068L15.4179 14.0068C15.6903 13.9614 15.9479 14.1454 15.9933 14.4178Z" fill="#DB5C5C"/>
</svg>
