<svg width="16" height="16" viewBox="0 0 16 16" fill="none" xmlns="http://www.w3.org/2000/svg">
<path d="M15.5 9.5L10.5 10M15.5 12.25L10.5 12.75M15.5 15L10.5 15.5" stroke="#DB5C5C" stroke-linecap="round" stroke-linejoin="round"/>
<path fill-rule="evenodd" clip-rule="evenodd" d="M10.5 3H4.73244C4.90261 3.29417 5 3.63571 5 4V12C5 12.5523 5.44772 13 6 13H9V14H6C4.89543 14 4 13.1046 4 12V5H1.5C1.22386 5 1 4.77614 1 4.5V4C1 2.89543 1.89543 2 3 2H10.5C11.8807 2 13 3.11929 13 4.5V8.24254L12 8.34254V4.5C12 3.67157 11.3284 3 10.5 3ZM2 4C2 3.44772 2.44772 3 3 3C3.55228 3 4 3.44772 4 4H2Z" fill="#CED0D6"/>
</svg>
