<svg width="16" height="16" viewBox="0 0 16 16" fill="none" xmlns="http://www.w3.org/2000/svg">
<path fill-rule="evenodd" clip-rule="evenodd" d="M15.9933 10.4178C16.0387 10.6902 15.8547 10.9478 15.5823 10.9932L9.58228 11.9932C9.30989 12.0386 9.05228 11.8546 9.00688 11.5822C8.96148 11.3098 9.14549 11.0522 9.41788 11.0068L15.4179 10.0068C15.6903 9.96141 15.9479 10.1454 15.9933 10.4178ZM15.9933 12.4178C16.0387 12.6902 15.8547 12.9478 15.5823 12.9932L9.58228 13.9932C9.30989 14.0386 9.05228 13.8546 9.00688 13.5822C8.96148 13.3098 9.14549 13.0522 9.41788 13.0068L15.4179 12.0068C15.6903 11.9614 15.9479 12.1454 15.9933 12.4178ZM15.9933 14.4178C16.0387 14.6902 15.8547 14.9478 15.5823 14.9932L9.58228 15.9932C9.30989 16.0386 9.05228 15.8546 9.00688 15.5822C8.96148 15.3098 9.14549 15.0522 9.41788 15.0068L15.4179 14.0068C15.6903 13.9614 15.9479 14.1454 15.9933 14.4178Z" fill="#E35252"/>
<path d="M9.28006 10.016L14.9178 9.0764C14.9719 8.72552 15 8.36604 15 8C15 4.13401 11.866 1 8 1C4.13401 1 1 4.13401 1 8C1 11.866 4.13401 15 8 15V11.5L8.00001 11.495C8.00144 11.0609 8.18725 10.6702 8.48323 10.3972C8.69962 10.1976 8.9749 10.0608 9.28006 10.016Z" fill="#FFF5F5"/>
<path d="M2 8C2 11.3137 4.68629 14 8 14V15C4.13401 15 1 11.866 1 8C1 4.13401 4.13401 1 8 1C11.866 1 15 4.13401 15 8C15 8.36604 14.9719 8.72552 14.9178 9.0764L13.8694 9.25113C13.955 8.84758 14 8.42905 14 8C14 4.68629 11.3137 2 8 2C4.68629 2 2 4.68629 2 8Z" fill="#E35252"/>
</svg>
