<svg width="16" height="16" viewBox="0 0 16 16" fill="none" xmlns="http://www.w3.org/2000/svg">
<path fill-rule="evenodd" clip-rule="evenodd" d="M4.73244 3H10.5C11.3284 3 12 3.67157 12 4.5V9.56269L13 9.39602V4.5C13 3.11929 11.8807 2 10.5 2H3C1.89543 2 1 2.89543 1 4V4.5C1 4.77614 1.22386 5 1.5 5H4V12C4 13.1046 4.89543 14 6 14H8V13H6C5.44772 13 5 12.5523 5 12V4C5 3.63571 4.90261 3.29417 4.73244 3ZM3 3C2.44772 3 2 3.44772 2 4H4C4 3.44772 3.55228 3 3 3Z" fill="#CED0D6"/>
<path fill-rule="evenodd" clip-rule="evenodd" d="M15.9933 10.4179C16.0387 10.6903 15.8547 10.9479 15.5823 10.9933L9.58228 11.9933C9.30989 12.0387 9.05228 11.8547 9.00688 11.5823C8.96148 11.3099 9.14549 11.0523 9.41788 11.0069L15.4179 10.0069C15.6903 9.96148 15.9479 10.1455 15.9933 10.4179ZM15.9933 12.4179C16.0387 12.6903 15.8547 12.9479 15.5823 12.9933L9.58228 13.9933C9.30989 14.0387 9.05228 13.8547 9.00688 13.5823C8.96148 13.3099 9.14549 13.0523 9.41788 13.0069L15.4179 12.0069C15.6903 11.9615 15.9479 12.1455 15.9933 12.4179ZM15.9933 14.4179C16.0387 14.6903 15.8547 14.9479 15.5823 14.9933L9.58228 15.9933C9.30989 16.0387 9.05228 15.8547 9.00688 15.5823C8.96148 15.3099 9.14549 15.0523 9.41788 15.0069L15.4179 14.0069C15.6903 13.9615 15.9479 14.1455 15.9933 14.4179Z" fill="#DB5C5C"/>
</svg>
