<svg width="16" height="16" viewBox="0 0 16 16" fill="none" xmlns="http://www.w3.org/2000/svg">
<path d="M1 3.86667C1 2.83574 1.73127 2 2.63333 2H6.1217C6.39413 2 6.65477 2.11115 6.84336 2.30775L8.46667 4L13 4C14.1046 4 15 4.89543 15 6V8.04252L10.3509 8.50743C9.57666 8.58485 8.99908 9.23795 9 10V14H2.63333C1.73127 14 1 13.1643 1 12.1333V3.86667Z" fill="#EBECF0"/>
<path d="M15.5 9.5L10.5 10M15.5 12.25L10.5 12.75M15.5 15L10.5 15.5" stroke="#DB3B4B" stroke-linecap="round" stroke-linejoin="round"/>
<path d="M6.1217 3L2.63333 3C2.40481 3 2 3.25841 2 3.86667V12.1333C2 12.7416 2.40481 13 2.63333 13H9V14H2.63333C1.73127 14 1 13.1643 1 12.1333V3.86667C1 2.83574 1.73127 2 2.63333 2H6.1217C6.39413 2 6.65477 2.11115 6.84336 2.30775L8.46667 4L13 4C14.1046 4 15 4.89543 15 6V8.04252L14 8.14252V6C14 5.44771 13.5523 5 13 5H8.04022L6.1217 3Z" fill="#6C707E"/>
</svg>
