<svg width="12" height="12" viewBox="0 0 12 12" fill="none" xmlns="http://www.w3.org/2000/svg">
<path d="M9.9917 1.5H6.9917V4.5C6.9917 4.77614 7.21556 5 7.4917 5C7.76784 5 7.9917 4.77614 7.9917 4.5V3.12149C8.90391 3.7539 9.5 4.80762 9.5 6C9.5 7.933 7.933 9.5 6 9.5C4.067 9.5 2.5 7.933 2.5 6C2.5 4.70514 3.20291 3.57385 4.25036 2.96793C4.48939 2.82966 4.57107 2.5238 4.4328 2.28477C4.29453 2.04574 3.98867 1.96405 3.74964 2.10233C2.40589 2.87964 1.5 4.33374 1.5 6C1.5 8.48528 3.51472 10.5 6 10.5C8.48528 10.5 10.5 8.48528 10.5 6C10.5 4.58582 9.84752 3.32452 8.82857 2.5H9.9917C10.2678 2.5 10.4917 2.27614 10.4917 2C10.4917 1.72386 10.2678 1.5 9.9917 1.5Z" fill="#6C707E"/>
</svg>
