<svg width="16" height="16" viewBox="0 0 16 16" fill="none" xmlns="http://www.w3.org/2000/svg">
<path d="M1 8C1 11.866 4.13401 15 8 15C11.866 15 15 11.866 15 8H1Z" fill="#45322B"/>
<path d="M1 8C1 11.866 4.13401 15 8 15C11.866 15 15 11.866 15 8H14C14 11.3137 11.3137 14 8 14C4.68629 14 2 11.3137 2 8H1Z" fill="#C77D55"/>
<path d="M15 8C15 4.13401 11.866 1 8 1C4.13401 1 1 4.13401 1 8H15Z" fill="#253627"/>
<path d="M14 8H15C15 4.13401 11.866 1 8 1C4.13401 1 1 4.13401 1 8H2C2 4.68629 4.68629 2 8 2C11.3137 2 14 4.68629 14 8Z" fill="#57965C"/>
<path fill-rule="evenodd" clip-rule="evenodd" d="M7.5 6H5V5H11V6H8.5V12H7.5V6Z" fill="#CED0D6"/>
</svg>
