<svg width="16" height="16" viewBox="0 0 16 16" fill="none" xmlns="http://www.w3.org/2000/svg">
<path d="M14.9999 8.04253C15 8.02837 15 8.01419 15 8C15 4.13401 11.866 1 8 1C4.13401 1 1 4.13401 1 8C1 11.866 4.13401 15 8 15C8.33952 15 8.6734 14.9758 9 14.9291V10C8.99909 9.23796 9.57666 8.58485 10.3509 8.50744L14.9999 8.04253Z" fill="#F2FCF3"/>
<path d="M9 13.917C8.67479 13.9716 8.34071 14 8 14C4.68629 14 2 11.3137 2 8C2 4.68629 4.68629 2 8 2C11.3137 2 14 4.68629 14 8C14 8.04769 13.9994 8.09526 13.9983 8.14269L14.9999 8.04253C15 8.02837 15 8.01419 15 8C15 4.13401 11.866 1 8 1C4.13401 1 1 4.13401 1 8C1 11.866 4.13401 15 8 15C8.33952 15 8.6734 14.9758 9 14.9291V13.917Z" fill="#208A3C"/>
<path d="M15.5 9.5L10.5 10M15.5 12.25L10.5 12.75M15.5 15L10.5 15.5" stroke="#DB3B4B" stroke-linecap="round" stroke-linejoin="round"/>
<path fill-rule="evenodd" clip-rule="evenodd" d="M7.5 6H5V5H11V6H8.5V12H7.5V6Z" fill="#208A3C"/>
</svg>
