<svg width="16" height="16" viewBox="0 0 16 16" fill="none" xmlns="http://www.w3.org/2000/svg">
<path d="M1 4C1 2.89543 1.89543 2 3 2H13C14.1046 2 15 2.89543 15 4V12C15 13.1046 14.1046 14 13 14H3C1.89543 14 1 13.1046 1 12V4Z" fill="#F2FCF3"/>
<path d="M3.5 14C3.77614 14 4 13.7761 4 13.5C4 13.2239 3.77614 13 3.5 13V14ZM3.5 3C3.77614 3 4 2.77614 4 2.5C4 2.22386 3.77614 2 3.5 2V3ZM3.5 13H3V14H3.5V13ZM2 12V4H1V12H2ZM3 3H3.5V2H3V3ZM2 4C2 3.44772 2.44772 3 3 3V2C1.89543 2 1 2.89543 1 4H2ZM3 13C2.44772 13 2 12.5523 2 12H1C1 13.1046 1.89543 14 3 14V13Z" fill="#5FB865"/>
<path d="M12.5 13C12.2239 13 12 13.2239 12 13.5C12 13.7761 12.2239 14 12.5 14V13ZM12.5 2C12.2239 2 12 2.22386 12 2.5C12 2.77614 12.2239 3 12.5 3V2ZM13 13H12.5V14H13V13ZM15 12V4H14V12H15ZM13 2H12.5V3H13V2ZM15 4C15 2.89543 14.1046 2 13 2V3C13.5523 3 14 3.44772 14 4H15ZM13 14C14.1046 14 15 13.1046 15 12H14C14 12.5523 13.5523 13 13 13V14Z" fill="#5FB865"/>
<path fill-rule="evenodd" clip-rule="evenodd" d="M7.5 5H5V4H11V5H8.5V12H7.5V5Z" fill="#6C707E"/>
</svg>
